<svg width="1200" height="19" viewBox="0 0 1200 19" fill="none" xmlns="http://www.w3.org/2000/svg">
<path d="M1200 9.15527e-05L1200 10.1533C1192.24 10.3563 1184.47 10.4957 1176.71 10.3894C1164.91 10.2383 1153.11 9.75896 1141.32 9.39769C1133.77 9.16157 1126.21 8.99865 1118.68 8.60432C1103.48 7.80859 1088.34 6.81689 1073.16 6.02352C1063.16 5.49697 1053.1 5.13098 1043.06 4.77208C1026.1 4.16525 1009.14 3.51355 992.167 3.08617C976.871 2.70365 961.554 2.52184 946.246 2.40378C938.682 2.34475 931.098 2.52184 923.542 2.78629C910.974 3.22784 898.422 3.80633 885.866 4.36121C877.066 4.74845 868.266 5.11208 859.51 5.62918C843.218 6.59019 826.954 7.75426 810.649 8.65152C795.125 9.50628 779.569 10.1839 764.017 10.8474C753.649 11.2913 743.265 11.5558 732.885 11.9289C722.885 12.2783 712.885 12.6797 702.885 12.9867C689.041 13.4117 675.189 13.721 661.348 14.1815C652.884 14.4648 644.432 14.9063 635.98 15.3361C629.704 15.6548 623.444 16.0917 617.18 16.4364C607.788 16.9535 598.38 17.5108 588.988 17.9098C579.132 18.3254 569.244 18.4977 559.388 18.9251C554.408 19.1423 549.46 18.9393 545.156 17.6288C542.204 16.7292 539.596 16.1412 536.248 16.2121C531.696 16.2994 527.116 16.0468 522.556 15.8815C516.296 15.6454 510.043 15.2582 503.779 15.1377C496.243 14.9961 488.695 15.0787 481.151 15.0362C479.887 15.0362 478.351 15.3243 477.355 14.2074L480.351 13.499C475.859 12.4814 473.355 12.42 468.915 13.0528C466.011 13.466 463.111 13.7611 460.115 13.2653C458.157 12.9364 456.146 12.7282 454.115 12.6443C447.671 12.4082 441.219 12.3019 434.775 12.0989C430.887 11.9784 427.011 11.6951 423.123 11.6549C421.831 11.6408 419.923 10.8073 419.091 12.2429C419.039 12.3373 418.195 12.4176 417.959 12.3137C414.359 10.7175 410.787 11.9241 407.379 12.5003C404.407 13.0056 401.587 13.2464 398.579 12.8521C397.559 12.7175 395.735 12.5687 395.511 12.8167C394.179 14.2735 392.003 13.747 390.139 13.7611C386.899 13.7942 383.267 14.2334 380.515 13.525C376.739 12.5546 373.079 12.2334 369.107 12.1201C361.555 11.9076 354.018 11.492 346.47 11.2181C344.15 11.1355 341.806 11.3291 339.486 11.2464C329.758 10.9064 320.038 10.4531 310.306 10.1556C305.598 10.0115 300.866 10.139 296.146 10.0895C295.114 10.0776 293.89 9.99028 293.102 9.65499C290.618 8.59245 288.054 8.48619 285.206 8.96315C282.358 9.44012 279.458 10.0422 276.526 10.1745C270.278 10.4531 264.126 11.4117 257.726 10.9631C254.198 10.727 250.578 10.8923 247.002 10.9253C240.298 10.9891 233.594 11.2275 226.898 11.1378C217.45 11.008 208.045 11.1166 198.665 11.8226C195.093 12.0917 191.441 12.0587 187.901 12.4105C173.925 13.8318 159.767 14.5428 145.585 14.5356C144.013 14.5356 142.385 14.5096 140.877 14.7009C135.233 15.4092 129.645 15.0055 124.025 14.6159C121.997 14.4626 119.943 14.4833 117.925 14.6773C113.882 15.0902 109.732 14.9521 105.793 14.2735C104 13.9408 102.135 13.7626 100.257 13.7446C96.1716 13.7782 92.0927 13.9397 88.0366 14.2286C83.9086 14.5403 79.5966 13.1921 75.6006 14.741C75.1645 14.9087 74.3326 14.8189 73.7366 14.7268C67.5925 13.7824 61.4366 13.7068 55.1405 14.231C51.9406 14.4978 48.5924 14.2027 45.3164 14.231C39.8318 14.2948 34.3571 13.9328 29.0323 13.1543C23.9563 12.4176 18.4763 12.6513 13.1763 12.4294C11.9282 12.3751 10.7002 12.1933 9.45215 12.0917C6.30554 11.8462 3.15466 11.61 -9.95167e-07 11.3834L0 -1.33546e-05L1200 9.15527e-05Z" fill="#f0e511"/>
</svg>
