<svg width="93" height="49" viewBox="0 0 93 49" fill="none" xmlns="http://www.w3.org/2000/svg">
<g clip-path="url(#clip0)">
<rect width="93" height="49" fill="white"/>
<path d="M86.5897 28.2265C86.6311 28.0532 86.6318 27.8726 86.5917 27.699C86.5515 27.5254 86.4717 27.3635 86.3584 27.2259C86.2451 27.0884 86.1015 26.979 85.9388 26.9063C85.7761 26.8337 85.5987 26.7997 85.4207 26.8072C81.9623 26.9367 78.4037 26.7874 77.0845 23.0665C76.1942 20.5345 75.1507 18.3177 73.0163 16.5641C71.2152 15.1042 69.0284 14.1998 66.7223 13.9611C64.4162 13.7223 62.0905 14.1594 60.0285 15.2192C59.8458 14.4682 59.5959 13.7351 59.282 13.0288C57.992 10.0539 55.2051 7.87459 51.8452 8.12626C50.7039 8.21736 49.5955 8.5527 48.5951 9.10954C47.5947 9.66638 46.7256 10.4317 46.0468 11.3537C45.9732 11.2706 45.8885 11.198 45.7952 11.138C42.9393 9.36861 39.6122 7.83747 36.1678 8.51C34.6892 8.7324 33.3195 9.41913 32.2567 10.471C31.1939 11.5228 30.493 12.8852 30.2553 14.3615C29.8456 17.6315 31.5575 20.8668 33.0073 23.6566L33.6025 24.7907C33.4262 24.7227 33.2323 24.7151 33.0512 24.7691C32.8701 24.8231 32.7121 24.9357 32.6018 25.0892C30.1459 28.221 26.0445 29.7016 22.4145 27.693C22.1427 27.5466 21.8241 27.5137 21.5281 27.6013C21.2321 27.6889 20.9828 27.89 20.8344 28.1607C20.3284 29.0119 19.5497 29.6674 18.6246 30.0208C17.6996 30.3743 16.6822 30.405 15.7375 30.1081C14.7762 29.7811 13.9555 29.1356 13.4111 28.2784C12.9683 27.5588 12.9318 26.7017 12.5156 25.9869C11.9269 24.983 10.8821 24.829 9.71603 25.0563C9.95857 24.7026 10.1787 24.3365 10.3961 23.9397C11.6267 21.6939 12.6432 19.5547 14.8181 18.0015C16.6736 16.6575 18.8593 15.843 21.1418 15.645C23.4242 15.447 25.7176 15.873 27.7767 16.8774C27.9752 16.9862 28.2089 17.0117 28.4262 16.9482C28.6435 16.8847 28.8267 16.7375 28.9355 16.539C29.0443 16.3405 29.0698 16.1068 29.0063 15.8895C28.9429 15.6722 28.7957 15.489 28.5971 15.3802C26.591 14.3528 24.3703 13.8145 22.1164 13.8093C19.8626 13.8041 17.6394 14.3321 15.6286 15.3502C13.6066 16.3457 11.8657 17.8311 10.5645 19.6712C8.64538 22.445 7.93669 25.337 4.79126 27.0981C3.70617 27.7105 4.68568 29.1914 5.76164 28.72C6.90411 28.2005 8.07553 27.7472 9.27009 27.3623C10.2135 27.0616 10.3552 26.7499 10.8311 27.6044C10.9656 27.9349 11.0829 28.2721 11.1827 28.6147C11.8404 30.1207 13.0358 31.3276 14.5355 31.9997C15.8309 32.5581 17.2725 32.6821 18.6442 32.3529C20.016 32.0237 21.2444 31.2592 22.1454 30.1737C26.4154 32.0268 32.029 30.6643 34.2617 26.3589C34.2899 26.3161 34.3146 26.2711 34.3355 26.2242C35.9029 29.1369 37.5637 32.0035 39.1857 34.8878C39.9807 36.2968 40.7163 38.4715 41.8886 39.6006C42.9501 40.63 44.2372 39.8266 45.3235 39.283C48.7962 37.589 51.9308 35.2758 54.5734 32.4569C55.7613 31.1461 56.8007 29.7081 57.6727 28.1689C58.3077 29.0025 59.1424 29.6627 60.0998 30.0887C61.0572 30.5146 62.1065 30.6927 63.1508 30.6063C63.5097 31.3109 64.0288 31.9216 64.6663 32.3895C65.3038 32.8573 66.042 33.1693 66.8218 33.3004C67.6017 33.4316 68.4014 33.3782 69.1568 33.1446C69.9123 32.9109 70.6025 32.5036 71.1722 31.9551C72.1594 33.3494 73.5424 34.4154 75.1422 35.0152C76.7419 35.615 78.4848 35.7209 80.1454 35.3193C81.806 34.9177 83.3079 34.027 84.4568 32.7625C85.6057 31.498 86.3487 29.9179 86.5897 28.2265V28.2265ZM45.524 36.3948C44.899 36.8552 44.2078 37.2181 43.474 37.4713C43.6717 38.1053 43.5792 38.0254 43.1999 37.2432L42.4537 35.9583L39.5036 30.8083C37.6533 27.5945 35.7295 24.4086 34.1405 21.0557C32.6291 18.0763 30.835 13.6766 34.4093 11.3815C37.7961 9.19784 41.8106 11.0376 44.8461 12.9054C44.9598 12.976 45.0868 13.0224 45.2192 13.0417C45.1315 13.2878 45.0645 13.5409 45.0188 13.7982C44.7965 14.9321 46.5642 15.7741 47.0257 14.5767C48.1048 11.7903 51.189 9.62582 54.2221 10.9472C57.4432 12.3522 58.1025 16.6556 57.8335 19.7399C57.2107 27.1468 51.7521 32.9161 45.524 36.3948ZM72.2602 29.1347C72.1517 28.9562 71.9984 28.8092 71.8154 28.7084C71.6325 28.6076 71.4263 28.5565 71.2174 28.5603C71.0086 28.564 70.8044 28.6224 70.6251 28.7297C70.4459 28.8369 70.2979 28.9893 70.1959 29.1716C69.1452 31.7107 65.8621 31.7513 65.0567 28.9933C64.9602 28.6905 64.7509 28.4364 64.4722 28.2837C64.1935 28.1309 63.8667 28.0913 63.5595 28.1729C61.6199 28.5506 60.189 27.5913 58.9894 26.1747C58.9239 26.0955 58.8466 26.0269 58.7602 25.9712C60.0127 23.2319 60.5607 20.223 60.3543 17.218L60.4321 17.1827C61.6912 16.4899 63.085 16.0769 64.5183 15.972C65.9516 15.8672 67.3907 16.0729 68.7373 16.5751C70.0838 17.0774 71.3061 17.8643 72.3207 18.8822C73.3352 19.9001 74.1182 21.1249 74.616 22.4731C75.427 24.7767 75.9851 26.7957 78.3046 27.9985C80.0572 28.803 81.9738 29.1866 83.9011 29.1185C83.4054 30.2486 82.5918 31.21 81.5592 31.8857C80.5267 32.5613 79.3199 32.922 78.0859 32.9237C76.8519 32.9255 75.6441 32.5681 74.6097 31.8954C73.5753 31.2226 72.7589 30.2634 72.2602 29.1347V29.1347Z" fill="black"/>
<path d="M32.2495 15.7502C32.825 14.6786 33.6175 13.5627 34.4856 12.6946C34.9346 12.2456 35.591 11.9356 35.9023 11.3752C36.0996 11.0201 36.1196 11.3531 36.0481 11.5835C35.8513 12.2176 35.4865 12.7708 35.194 13.3613C34.3434 15.0778 33.5413 16.803 32.6523 18.5002C32.4875 18.8147 32.621 18.6057 32.7634 18.4238C33.5263 17.4489 34.6652 16.7027 35.6106 15.9168C36.8732 14.8673 38.1475 13.8429 39.4717 12.8752C39.8308 12.6128 39.9578 12.1831 40.2495 11.8752C40.6535 11.4487 40.3135 11.9946 40.1662 12.2085C39.4613 13.2317 38.6303 14.145 37.8815 15.1321C36.6441 16.7632 35.4047 18.4047 34.194 20.0557C33.9565 20.3796 33.8072 20.7699 33.6245 21.1252C33.4099 21.5424 32.7781 22.2348 33.437 21.521C34.3852 20.4938 35.6318 19.7694 36.7078 18.8891C37.8217 17.9777 38.9293 16.811 39.7426 15.6182C40.1771 14.9809 40.5424 14.3187 40.9995 13.6946C41.0858 13.5768 41.8611 12.47 41.3884 13.0141C39.448 15.2474 37.4562 17.3509 35.8606 19.8613C35.3246 20.7047 34.6973 21.4818 34.2703 22.3891C34.2457 22.4414 34.3395 22.2963 34.3745 22.2502C34.9034 21.553 35.6053 20.957 36.2634 20.3891C38.436 18.5141 40.8659 16.9206 43.2426 15.3196C44.4561 14.5022 45.7703 13.7271 46.8467 12.7224C49.1563 10.5668 42.1259 16.9516 40.0828 19.3613C39.6565 19.8642 39.2972 20.4203 38.8467 20.903C38.54 21.2316 38.5399 21.1228 38.7773 20.7016C40.1476 18.2704 42.3345 16.3246 44.444 14.5557C45.3429 13.8019 46.2774 13.106 47.2356 12.4307C48.2354 11.7261 47.5423 12.2196 48.2773 11.6946C48.3507 11.6422 48.5224 11.473 48.5134 11.5627C48.4882 11.8145 48.0456 12.2779 47.9162 12.4307C46.799 13.7502 45.4691 14.8995 44.1662 16.028C41.0266 18.7473 37.8533 21.4257 34.7565 24.1946C34.6583 24.2823 33.9479 25.0855 33.7217 25.0974C33.5663 25.1056 33.8616 24.817 33.9578 24.6946C34.2864 24.2768 34.8176 23.7035 35.1523 23.3474C37.9256 20.3969 40.905 17.6316 44.2912 15.3891C44.9173 14.9744 45.6062 14.551 46.319 14.2918C46.8561 14.0965 46.3365 14.7878 46.2634 14.9168C45.4665 16.3232 44.5207 17.5147 43.4578 18.7293C42.8987 19.3684 42.3678 20.1127 41.7495 20.6946C41.127 21.2805 42.5083 19.156 42.9926 18.4516C44.2211 16.6646 45.6387 14.8286 47.2217 13.3335C48.7001 11.9372 44.7686 16.5843 43.4023 18.0905C40.687 21.0837 37.9221 24.0402 35.0828 26.9168C35.0655 26.9344 34.6493 27.3432 34.9578 27.0696C35.7587 26.3595 36.4397 25.5212 37.194 24.7641C39.7649 22.1831 42.7837 19.8084 45.8398 17.8266C46.8977 17.1405 47.9959 16.5168 49.0967 15.903C49.3644 15.7537 49.6137 15.5355 49.9162 15.4863C49.9893 15.4744 49.9493 15.6423 49.9162 15.7085C49.5859 16.3691 49.0215 16.984 48.5759 17.5557C47.4838 18.957 46.364 20.3255 45.1592 21.6321C44.1406 22.7369 43.1012 23.698 41.9301 24.6252C41.8823 24.663 41.938 24.5022 41.9578 24.4446C42.3038 23.4382 42.8541 22.4795 43.3815 21.5627C45.1886 18.4212 47.6863 15.8189 50.4162 13.4585C50.84 13.0921 52.4179 11.7024 51.2148 13.1113C48.5862 16.1895 45.9179 19.2363 43.1037 22.146C42.937 22.3183 40.9654 24.4954 42.0967 22.9724C43.9418 20.4887 46.0677 18.3325 48.3676 16.2641C49.2268 15.4913 50.0963 14.7246 50.9856 13.9863C51.2405 13.7747 51.8875 13.2556 51.319 13.9307C49.9451 15.5622 48.3753 16.9243 46.7426 18.2849C45.9152 18.9744 47.065 16.6533 47.1662 16.4863C47.9574 15.1808 48.9606 14.021 50.2703 13.2224C50.3972 13.145 50.73 12.9393 50.694 13.0835C50.4856 13.917 49.4484 14.8577 48.944 15.5002C48.3837 16.2138 47.8479 16.9588 47.2634 17.653C47.1259 17.8163 47.1245 17.765 47.1245 17.6252" stroke="black" stroke-linecap="round" stroke-linejoin="round"/>
<path d="M38.3745 26.3749C40.3377 23.6791 42.4128 21.004 44.7912 18.6596C45.1265 18.3291 45.9253 17.2637 45.8537 17.729C45.6748 18.8915 44.4019 20.2169 43.7703 21.0971C42.4827 22.8917 41.1006 24.6145 39.7495 26.361C39.3435 26.8859 39.2288 27.0766 39.7426 26.4443C40.7904 25.1547 41.9511 23.9423 43.187 22.8332C44.203 21.9214 45.3496 21.1897 46.3745 20.2985C46.5591 20.138 45.579 21.6882 45.4717 21.8471C43.9949 24.034 42.4573 26.18 40.9717 28.361C40.6067 28.8969 39.6652 30.5895 39.9023 29.986C40.3529 28.8391 41.3991 27.8449 42.1384 26.8888C43.6186 24.9745 45.0694 23.0381 46.569 21.1388C46.6953 20.9787 47.8782 19.479 47.1662 20.5832C45.9935 22.4017 44.6889 24.1412 43.4717 25.9304C42.9969 26.6285 42.5488 27.4627 41.9648 28.0832C41.8598 28.1948 41.8797 27.7696 41.9301 27.6249C42.4162 26.2272 43.1843 24.8671 43.8606 23.5554C44.2327 22.8339 44.7308 21.4507 45.4301 20.9513C45.5558 20.8615 45.3464 21.2506 45.2773 21.3888C44.8124 22.3186 44.3057 23.2264 43.8467 24.1596C42.8169 26.2536 41.8947 28.4074 41.1453 30.6179C40.7736 31.7145 41.3136 30.6735 41.6037 30.2568C42.8098 28.5244 44.243 26.9405 45.7148 25.4304C46.0432 25.0935 47.1193 24.0668 46.5828 25.2429C46.0291 26.4569 45.2655 27.5939 44.5273 28.7013C44.2254 29.154 43.6425 30.0066 44.0828 28.9582C44.7159 27.451 45.3979 25.9631 46.0828 24.479C46.3564 23.8864 47.2337 22.1446 47.0273 22.7638C46.4669 24.4448 45.346 26 44.5412 27.5693C44.008 28.6091 43.6311 29.9503 42.9509 30.9027C42.6133 31.3753 43.4728 29.864 43.7634 29.361C44.5252 28.0425 45.4731 26.88 46.3676 25.6527C47.0907 24.6605 46.6395 25.6997 46.3745 26.1943C45.2211 28.3473 43.9495 30.4417 42.7495 32.5693C42.3957 33.1967 42.0319 33.8189 41.687 34.4513C41.5411 34.7187 41.6602 34.4472 41.6801 34.3888C42.014 33.4066 42.6615 32.5975 43.2634 31.7638C44.3902 30.203 45.5314 28.5655 46.8745 27.1804C47.588 26.4446 47.4688 26.944 47.2217 27.6249C46.7916 28.81 46.1791 29.89 45.5412 30.9721C45.052 31.802 44.4969 32.5834 43.9995 33.4027C43.5505 34.1423 44.2047 32.7904 44.2634 32.6804C45.0339 31.2358 45.9646 29.8768 46.8676 28.5138C47.437 27.6543 48.0158 26.8006 48.569 25.9304C48.7302 25.6769 49.069 24.88 49.069 25.1804C49.069 25.5225 48.7055 26.1282 48.569 26.4027C47.9921 27.5621 47.2875 28.6578 46.6176 29.7638C45.3944 31.783 44.1738 33.8167 43.1315 35.9374C42.8402 36.5299 42.9382 36.4371 43.2703 35.9721C43.9718 34.99 44.6561 33.9902 45.4023 33.0415C46.0794 32.1807 46.7911 30.9112 47.6592 30.236C47.8344 30.0998 47.5254 30.6606 47.4301 30.861C47.034 31.6938 46.6074 32.5128 46.1731 33.3263C45.5239 34.5424 44.8751 35.7697 44.1523 36.9443C43.7292 37.6319 44.7986 35.7488 44.8745 35.6249C45.7732 34.1564 46.7903 32.761 47.8467 31.4027C48.2081 30.9381 48.3086 30.8902 48.069 31.486C47.634 32.5671 47.0093 33.5293 46.4162 34.5277C45.9952 35.2363 45.4614 36.2026 46.3467 34.9304C47.6474 33.0615 48.9791 31.216 50.3745 29.4165C51.0456 28.5511 51.7331 27.6969 52.3884 26.8193C52.4113 26.7887 52.7381 26.2039 52.8467 26.1388C53.0165 26.0369 52.7862 26.5307 52.7356 26.7221C52.5917 27.2671 52.4046 27.7877 52.1801 28.3054C51.4996 29.8742 50.7316 31.4027 50.0828 32.986C49.5726 34.2313 50.24 33.0069 50.4995 32.611C51.9284 30.4308 53.5738 28.4489 55.2356 26.4443C55.3701 26.2821 57.3003 23.5091 57.5967 23.5832C57.648 23.596 56.3917 25.5509 56.3328 25.6388C55.5408 26.8201 54.6172 27.8603 53.6245 28.8749C53.5222 28.9794 52.8941 29.8709 53.0273 29.3193C53.2366 28.4524 53.8054 27.6578 54.2078 26.8749C54.9893 25.3546 55.6484 23.7803 56.2287 22.1735C56.4387 21.5919 56.6632 21.037 56.1315 21.8679C54.5942 24.2699 52.9582 26.6019 51.3328 28.9443C51.0486 29.3539 50.612 30.1867 50.1801 30.5415C50.0611 30.6392 50.219 30.2326 50.2773 30.0902C50.998 28.3284 52.2899 26.7122 53.2426 25.0693C54.1504 23.5038 55.0666 21.9489 56.062 20.4374C56.3232 20.0408 56.9699 19.2735 56.319 20.2499C54.466 23.0293 51.6825 25.4138 50.2773 28.4721C50.163 28.7209 50.4315 27.9452 50.5412 27.6943C51.7002 25.043 53.1589 22.5157 54.4301 19.9165C55.1236 18.4985 55.7585 17.064 56.4023 15.6249C56.4311 15.5605 56.4792 15.5007 56.4856 15.4304C56.5018 15.2521 56.2422 15.6943 56.1384 15.8402C55.753 16.3813 55.4158 16.9456 55.0967 17.5277C53.7106 20.0561 52.4663 22.6218 51.1801 25.1943C50.1633 27.2279 52.4483 20.8124 53.3745 18.736C53.8306 17.7134 54.4525 16.7527 54.8676 15.7152C55.3941 14.3988 53.4711 18.1836 52.7356 19.3957C51.1322 22.0384 49.4563 24.6329 47.812 27.2499C47.3234 28.0275 47.0572 28.5711 47.5967 27.4304C48.7774 24.9341 49.985 22.4436 51.3745 20.0554C52.559 18.0196 53.9207 16.0918 55.069 14.0346C56.8909 10.7703 51.1339 20.405 49.4787 23.7568C49.0072 24.7116 49.3873 23.8557 49.5342 23.5068C50.1093 22.1411 50.7973 20.8084 51.4509 19.479C51.8621 18.6427 52.3522 17.7935 52.6384 16.9027C52.6886 16.7465 52.8364 16.5266 52.7148 16.4165C52.6085 16.3204 52.4444 16.5339 52.3467 16.6388C52.0275 16.9813 51.7573 17.3667 51.4787 17.7429C49.836 19.9611 48.3367 22.2987 46.7981 24.5902C46.3822 25.2096 46.4792 25.012 46.7356 24.5346C47.5934 22.9373 48.3398 21.2838 49.2009 19.6874C49.8772 18.4335 50.6425 17.2518 51.3884 16.0415C51.8394 15.3097 50.6457 17.1089 50.6245 17.1388C49.6232 18.5544 48.6179 19.9661 47.569 21.3471C46.9148 22.2083 47.503 20.7907 47.5828 20.5138C48.176 18.4567 48.9466 16.5286 49.9578 14.6388C50.2307 14.1289 50.7101 12.962 51.2495 12.6249C51.5865 12.4143 50.8133 13.2894 50.5898 13.6179C50.1314 14.2916 49.6883 14.9713 49.2634 15.6665C48.8355 16.3668 48.4175 17.0626 47.9301 17.7221C47.9237 17.7307 48.0474 16.6285 48.062 16.479C48.1869 15.2028 48.4417 13.9908 48.9856 12.8193C49.1292 12.5101 49.7137 11.6671 49.5481 11.9652C49.3273 12.3627 49.145 12.8344 49.0203 13.2707C48.9218 13.6155 49.0632 13.1634 49.1037 13.111C49.5421 12.5436 50.3439 12.2877 51.0065 12.1318C51.3525 12.0504 52.4794 11.6572 52.8328 11.9096C52.9693 12.0071 52.803 12.6686 52.694 12.7777C52.6694 12.8022 53.2439 11.542 53.0967 12.2777C52.9697 12.9131 52.7266 13.5471 52.4995 14.1527C52.3102 14.6575 52.6716 13.915 52.7495 13.8054C52.8884 13.6103 53.5155 13.0487 53.694 13.486C53.8407 13.8455 53.6573 14.2648 53.7773 14.6249C53.875 14.9181 54.189 14.6434 54.3745 14.6249C54.6401 14.5983 54.7467 14.8616 54.8467 15.0693C55.2657 15.9395 55.1028 16.9828 55.1245 17.9165C55.154 19.1854 55.2576 20.595 55.4995 21.8471C56.1912 25.4275 52.675 27.8398 50.3745 29.8749" stroke="black" stroke-linecap="round" stroke-linejoin="round"/>
<path d="M48.7497 34.125C49.6803 30.7815 50.5313 27.4207 51.2636 24.0278C51.7314 21.8601 52.1918 19.689 52.6247 17.5139C52.6494 17.3897 53.1736 15.5224 52.958 15.25C52.9074 15.1861 52.8546 15.378 52.8191 15.4514C52.7147 15.6677 52.2035 16.9864 52.1872 17.0278C51.5927 18.5325 51.0087 20.045 50.3608 21.5278C49.5042 23.4883 48.4392 25.344 47.4997 27.2639C47.2557 27.7625 48.0968 26.3277 48.3747 25.8472C48.6004 25.457 48.8367 25.0859 49.1038 24.7222C49.2319 24.548 49.403 24.015 49.4997 24.2084C49.5526 24.3142 49.321 24.925 49.3191 24.9306C49.0364 25.768 48.6843 26.581 48.3608 27.4028C48.1135 28.0309 47.8409 28.67 47.6733 29.3264C47.5421 29.84 47.8332 29.2927 47.8747 29.2222C48.3172 28.4707 48.7965 27.7344 49.3469 27.0556C49.5307 26.8289 49.1262 27.936 49.0969 28.0139C48.9483 28.409 48.5644 29.642 49.1108 28.5417C49.8143 27.1249 50.4205 25.6514 51.0691 24.2084C51.5066 23.2348 50.6078 25.1109 50.5552 25.2222C50.0666 26.257 49.6722 27.3409 49.1247 28.3472C49.0173 28.5445 48.7729 29.1176 48.958 28.5278C49.3266 27.3538 49.7595 26.2373 49.9858 25.0209C50.1142 24.3305 49.2035 25.6547 49.0483 25.8056C48.4758 26.3622 47.06 28.1333 46.1316 27.9167C45.2502 27.711 44.5964 25.8218 44.2358 25.1389C43.4995 23.7444 42.9085 22.237 41.9649 20.9653C41.5841 20.452 41.6227 19.5991 41.4163 19C40.9548 17.66 40.0815 16.864 38.9719 16.0278C37.8495 15.182 37.1043 14.4436 37.8191 13.0139C38.0012 12.6497 38.7497 11.6713 38.7497 12.6181C38.7497 13.5632 40.9531 12.6791 41.5413 12.5695C41.7873 12.5236 42.7049 12.2192 42.9233 12.4375C43.3981 12.9123 41.6031 12.1913 40.9441 12.0625C40.4075 11.9577 39.8783 11.8361 39.3469 11.7084C39.2175 11.6773 38.8473 11.6919 38.958 11.6181C39.1416 11.4957 39.2037 11.511 39.3747 11.625" stroke="black" stroke-linecap="round" stroke-linejoin="round"/>
<path d="M34.6246 16.3748C35.6583 14.7269 39.5539 10.3613 38.4232 11.9443C37.6265 13.0597 36.3557 13.9371 35.4441 14.979C34.8262 15.6851 36.1985 13.2383 36.7774 12.4998C37.1792 11.9872 36.5431 12.9326 36.4718 13.0276C36.1009 13.5221 35.5852 14.2569 35.0274 14.5693C33.946 15.1748 36.2859 12.3568 37.2704 11.604C38.9917 10.2877 34.0356 14.5028 32.2635 15.7498C30.7333 16.8266 34.6403 12.7206 36.2913 11.8401C37.5376 11.1754 32.958 16.3647 33.9857 15.3956C35.0728 14.3706 36.39 13.6118 37.7288 12.9651C38.405 12.6384 39.0973 12.3292 39.7913 12.0415C40.3273 11.8192 40.1927 12.0042 39.9302 12.3748C38.778 14.0014 37.4316 15.4308 35.8607 16.6526C35.3075 17.0829 34.9289 17.3533 35.5135 16.6109C36.3046 15.6063 37.2913 14.81 38.3468 14.097C38.7709 13.8106 39.5317 13.3011 38.8954 14.1109C37.7292 15.5952 36.3964 17.0307 35.0691 18.3748C35.0113 18.4333 34.8129 18.5736 34.8607 18.5068C35.3325 17.8462 35.8932 17.2319 36.4441 16.6387C37.5047 15.4965 38.7016 14.4794 39.9718 13.5762C40.0672 13.5084 40.3615 13.3367 40.2913 13.4304C39.7615 14.1367 38.866 14.7234 38.2079 15.2915C37.2064 16.1561 36.2011 17.0167 35.1941 17.8748C34.6349 18.3513 34.2501 18.6804 33.7079 19.1248C33.5937 19.2185 33.4826 19.44 33.3468 19.3818C32.9402 19.2075 35.177 16.7922 35.2913 16.6943C36.954 15.2691 39.4463 13.9909 41.5968 13.5415C41.9742 13.4626 42.2067 13.4541 41.9024 13.847C41.3332 14.5819 40.6338 15.2527 39.9718 15.9026C39.2567 16.6047 38.5037 17.2619 37.7218 17.8887C37.2262 18.286 36.0704 19.53 36.1038 18.8956C36.1594 17.8395 37.7748 16.5365 38.4996 15.9581C38.8751 15.6585 40.6777 13.9485 41.2913 14.2081C41.5439 14.315 38.6875 17.9277 38.4579 18.1873C37.8977 18.8211 37.2913 19.4176 36.6524 19.972C36.5908 20.0255 35.9405 20.5986 36.2635 20.0831C37.0886 18.7665 38.0774 17.5886 39.3607 16.7081C39.5493 16.5788 40.9528 15.3735 40.5274 16.3054C39.8402 17.8106 38.6601 19.1558 37.3607 20.1665C37.2307 20.2676 36.8351 20.4864 36.8954 20.3331C37.1761 19.6207 37.772 18.9149 38.2982 18.3748C39.2589 17.3888 40.506 16.2384 41.7913 15.6804C42.6771 15.2957 41.4799 16.5879 41.4024 16.6804C40.8761 17.308 40.3572 17.943 39.8052 18.5484C39.5728 18.8033 38.9429 19.5226 38.9857 19.1804C39.0365 18.7738 39.4042 18.3073 39.6246 17.9998C40.3424 16.9982 41.1573 16.0632 42.0968 15.2637C42.1921 15.1826 44.5968 13.453 44.5968 13.7012C44.5968 13.8381 44.2627 14.1117 44.2079 14.1665C43.4589 14.9156 42.6741 15.6246 41.8746 16.3193C41.1239 16.9715 40.3676 17.6174 39.6177 18.2706C39.4354 18.4294 39.0134 18.8823 39.1524 18.3262C39.5317 16.809 40.7996 15.3892 42.0135 14.472C42.4676 14.1289 42.9706 13.7816 43.4718 13.5068C43.8131 13.3196 43.1709 14.2321 42.9441 14.5484C41.9642 15.9143 40.8188 17.1668 39.6316 18.354C39.4832 18.5024 37.3091 20.657 38.2635 19.3887C39.2545 18.0717 40.5045 17.0071 41.9024 16.1387C42.0537 16.0447 42.4859 15.8862 42.4302 16.0554C42.0796 17.1199 41.1923 18.1396 40.5413 19.0137C40.4085 19.1919 37.307 23.3675 37.0968 23.1873C36.6718 22.823 38.5363 21.0323 38.6941 20.8887C38.9259 20.6778 41.4718 19.0432 41.4718 19.4026C41.4718 19.7232 41.0329 20.2206 40.8885 20.4165C40.1219 21.4565 39.3002 22.4628 38.4441 23.4304C38.2512 23.6483 37.0271 24.9048 37.1107 24.7498C37.9128 23.2636 38.7208 21.7175 39.8538 20.4512C40.136 20.1358 40.6044 19.6221 41.0274 19.472C41.2529 19.392 40.405 21.1634 40.3607 21.2498C40.0573 21.8416 39.7455 22.4278 39.4579 23.0276C39.4577 23.0282 39.1644 23.6611 39.1038 23.7637C39.0743 23.8136 39.0831 23.6464 39.0968 23.5901C39.4513 22.1398 40.3414 20.6096 41.5274 19.6804C42.8424 18.6501 41.2549 20.6504 41.076 20.8956C39.7051 22.7748 38.3573 24.6443 37.1385 26.6248C36.4965 27.668 38.4043 24.4979 39.2704 23.6318C39.4222 23.48 41.5204 21.4386 41.8121 21.9929C42.0545 22.4535 41.0725 23.8946 40.8746 24.347C40.6783 24.7958 41.1091 23.5248 41.2218 23.354C41.6718 22.6722 43.0816 20.7943 42.9302 21.597C42.8452 22.0472 42.3784 22.6029 42.1385 22.9443C41.3524 24.0629 40.5108 25.1444 39.6524 26.2081C38.9937 27.0244 38.2978 27.8082 37.6316 28.6179C37.4308 28.8619 36.917 29.6474 37.0343 29.354C37.6267 27.873 38.4489 26.6616 39.5829 25.5276C39.793 25.3176 42.0033 23.4757 41.9232 23.972C41.8119 24.6624 41.4889 25.2946 41.1454 25.8956C40.6877 26.6967 41.0451 25.8313 41.2218 25.4859C41.3018 25.3297 42.1943 23.9842 41.8329 24.6248C40.9849 26.1281 39.9809 27.5356 39.1802 29.0693C38.4402 30.4864 39.6223 27.496 39.701 27.3262C40.2047 26.2393 41.0986 24.4781 42.2496 23.9026C42.3185 23.8681 42.0401 25.5767 42.0066 25.722C41.7577 26.8002 42.0474 25.758 42.2357 25.3887C42.3068 25.2493 43.0301 23.8998 43.3191 24.0554C43.5102 24.1583 41.201 27.2331 41.0482 27.4443C40.8336 27.741 39.8874 29.3787 40.2774 28.0276C40.5282 27.1587 41.0086 26.0537 41.7288 25.472C42.504 24.8459 41.3812 28.1934 41.8885 26.0554C41.9484 25.8029 42.8251 23.9617 42.6941 24.9304C42.4769 26.5351 41.9241 28.1618 41.3329 29.6665C41.3133 29.7165 41.8008 28.452 42.0274 28.104C42.9136 26.743 44.1719 25.2264 45.6385 24.4581C46.1392 24.1959 45.6329 26.3445 45.6107 26.4304C45.5619 26.6195 45.0823 28.291 45.1524 27.9859C45.5613 26.2058 46.4722 24.4123 47.3746 22.8331C47.613 22.416 47.8623 21.9487 48.1802 21.5831C48.1852 21.5774 47.8246 22.5833 47.7496 22.7498C47.4384 23.4405 47.103 24.1179 46.7566 24.7915C46.4781 25.3329 46.204 26.1469 45.7774 26.604C45.5971 26.7971 45.8101 26.0716 45.8885 25.8193C46.2192 24.7544 46.6508 23.73 47.2079 22.7637C47.2946 22.6134 48.6119 20.8168 48.6246 20.9165C48.7227 21.6891 48.2175 22.9102 48.0135 23.5693C47.4675 25.3334 46.793 27.0489 46.1663 28.7845C46.0093 29.2193 45.6099 30.54 45.6802 30.0831C45.8231 29.1537 46.0806 28.219 46.4302 27.347C47.2151 25.3887 48.2504 23.2519 49.5968 21.6109C50.1737 20.9079 49.9209 21.6726 49.7843 22.1179C49.3824 23.4287 48.771 24.6578 48.3052 25.9443C48.2977 25.9648 48.2653 26.021 48.2704 25.9998C48.4458 25.2691 48.8559 24.5772 49.2079 23.9234C49.975 22.499 50.9252 20.9703 52.0968 19.8331C52.1512 19.7803 52.1712 19.9841 52.1454 20.0554C51.9292 20.6542 51.5025 21.2246 51.1663 21.7498C49.794 23.8935 48.4325 26.0126 47.2427 28.2637C46.8867 28.9372 47.0396 28.5287 47.1941 28.097C47.7063 26.6657 48.2526 25.2438 48.9163 23.8748C49.7382 22.1793 50.6821 20.1029 52.194 18.8818C52.3694 18.7401 52.3659 18.8549 52.319 19.0137C52.0004 20.0944 51.5319 21.1517 51.1107 22.1943C50.7347 23.1251 50.3314 24.04 49.8954 24.9443C49.8432 25.0527 49.4558 25.8727 49.3121 26.0762C49.2618 26.1475 49.2075 25.9201 49.2149 25.8331C49.3908 23.7574 50.0883 21.61 50.8052 19.6665C51.066 18.9592 51.3622 18.2669 51.7079 17.597C51.7882 17.4415 52.0329 17.0051 51.8885 17.104C50.4118 18.1143 48.9668 19.2353 47.6246 20.4165C47.6062 20.4327 46.6435 21.4737 46.4718 21.4165C46.2862 21.3546 47.5432 19.1453 47.6107 19.0276C48.2222 17.9624 48.8199 16.9832 49.7774 16.2081C49.917 16.0951 49.9342 16.0636 49.819 16.2637C49.422 16.9533 48.9804 17.6145 48.5413 18.2776C48.3286 18.5988 47.7397 19.5227 47.7704 19.1387C47.8569 18.0574 48.3449 16.6822 48.8329 15.722C48.8792 15.631 49.3913 14.9638 49.3329 14.847C49.2759 14.7329 47.9688 15.7332 47.9024 15.7845C46.7181 16.7004 45.5334 17.8397 44.1663 18.4859C43.8277 18.646 44.644 17.3593 44.7218 17.2637C45.1948 16.6829 45.9218 15.9326 46.6593 15.7081C47.0225 15.5976 46.7634 16.2312 46.6941 16.4026C46.4066 17.1127 46.9266 15.5026 46.9996 15.3401C47.1661 14.9693 47.7897 13.8433 48.2496 13.7776C48.2701 13.7747 47.2367 15.4382 47.7566 14.1387C47.8946 13.7937 48.0936 13.3199 48.3746 13.0554C48.5687 12.8727 48.0106 14.0332 47.9579 14.1109C47.2782 15.1136 46.5651 16.0892 45.826 17.0484C45.4699 17.5106 44.6606 18.5221 45.5552 17.4443C46.0749 16.818 46.8553 15.5237 47.701 15.3123C47.9279 15.2556 47.7561 15.7925 47.6802 16.0137C47.2711 17.2062 46.741 18.3618 46.2635 19.5276C45.8497 20.538 44.5293 23.5243 45.0829 22.5831C45.627 21.6583 46.1608 20.7328 46.7913 19.8609C47.2638 19.2074 48.0604 18.3166 47.4441 19.7359C46.2392 22.5102 44.8774 25.2242 43.7427 28.0276C43.6188 28.3336 43.3027 29.2704 43.4441 28.972C43.8169 28.1849 44.1139 27.3643 44.4857 26.5762C45.5149 24.3949 46.7878 22.2979 48.4024 20.4998C49.1565 19.66 48.337 21.3383 48.2218 21.6109C47.6827 22.8868 47.0854 24.1284 46.4302 25.347C45.2797 27.4869 48.3591 20.7053 50.1802 19.097C50.2592 19.0272 50.5143 18.7793 50.4718 19.0554C50.3097 20.1089 49.7179 21.2468 49.3607 22.229C48.392 24.8929 47.3518 27.5697 46.5552 30.2915C46.4294 30.721 47.3116 29.1005 47.3468 29.0415C48.643 26.8707 50.3391 25.0913 52.3052 23.5068C52.6265 23.2477 52.8398 23.1305 52.6246 23.6387C52.1367 24.7913 51.4653 25.8755 50.9163 26.9998C50.4103 28.0361 50.0369 29.4865 49.319 30.4095C48.8058 31.0694 50.2524 27.1988 50.0135 27.9998C49.7057 29.0318 49.1414 29.9642 48.5482 30.854C48.5135 30.9061 48.8751 30.0011 48.9718 29.8054C49.085 29.5763 49.4562 28.8027 49.0829 29.5276C48.6503 30.368 48.14 31.1361 47.5829 31.8956C47.0589 32.6103 48.5417 30.3919 49.1524 29.7498C50.637 28.1888 52.2527 26.9095 53.9649 25.6179C54.0549 25.55 54.6351 24.7827 54.6246 25.1804C54.6127 25.6319 54.4195 26.016 54.2565 26.4234C54.0009 27.0626 54.6068 25.0895 54.8468 24.4443C55.1323 23.6768 55.7424 22.8904 55.8677 22.0762C55.9696 21.4139 55.1246 24.6144 55.1246 23.9443C55.1246 23.0457 55.5867 21.9358 55.8815 21.104C56.2468 20.0736 56.8856 19.1867 57.694 18.4581C58.6644 17.5836 57.149 19.6268 57.0135 19.8331C56.4939 20.6241 55.9935 21.6171 55.319 22.2915C55.2687 22.3419 55.2622 21.246 55.2774 21.1109C55.3451 20.5085 55.5881 19.8619 55.8677 19.3262C56.1275 18.8282 55.2644 20.2752 54.9996 20.7706C54.437 21.8233 54.1543 22.9403 53.6524 23.9998C53.2918 24.761 54.2645 22.4281 54.6385 21.6734C55.3336 20.2708 56.1456 19.0012 57.1385 17.7915C57.3986 17.4745 58.1589 16.5144 57.951 16.8679C57.169 18.1972 55.6783 19.2057 54.5829 20.2498C53.9929 20.8123 53.2221 22.0473 53.5135 20.5276C53.7483 19.3035 54.0908 18.041 54.7496 16.972C55.0012 16.5638 55.2236 16.1179 55.5968 15.8054C55.6669 15.7467 56.3224 15.2123 56.0968 15.5345C55.4145 16.5093 54.9288 17.6068 54.2913 18.6109C53.8346 19.3301 53.3321 20.1701 53.6385 18.7915C53.7095 18.4721 54.9965 14.3253 54.8052 14.2706C54.3122 14.1298 52.7316 15.5284 52.3885 15.7915C52.1771 15.9535 50.5583 17.5131 50.5135 17.2776C50.4125 16.7472 50.6324 16.1028 50.7496 15.5901C50.7778 15.4667 51.1608 14.7698 51.0274 15.1804C50.7639 15.991 50.1303 16.7731 49.576 17.4095C48.8691 18.2211 49.8195 16.1236 49.9302 15.9165C50.6177 14.6297 51.6917 14.2657 52.7496 13.3748C53.6136 12.6472 51.9487 15.4992 51.3746 16.472C51.0305 17.0552 51.3708 16.1983 51.4579 16.0415C52.0169 15.0354 52.7812 14.1608 53.4579 13.2359C54.1367 12.3082 52.8679 13.6121 52.6663 13.7776C52.534 13.8862 51.5743 14.7933 51.444 14.4026C51.2407 13.7925 51.2509 12.5525 51.5274 11.9304C51.6603 11.6314 50.4616 12.6059 50.2774 11.9304C50.2444 11.8094 50.3539 11.4858 50.2496 11.5554C50.2071 11.5837 49.7635 12.1072 49.7635 12.0484C49.7635 11.4152 51.592 10.8757 51.8052 11.5762C52.4985 13.8544 51.669 16.2418 51.1177 18.4581C50.5249 20.8412 49.9405 23.2541 49.1107 25.5693C48.4684 27.3614 47.7418 29.1099 47.1524 30.9234C47.0063 31.3728 46.6541 32.7458 46.7566 32.2845C46.918 31.5579 47.5021 30.8346 47.9024 30.222C48.0278 30.03 49.1107 28.7797 49.1107 28.9095C49.1107 29.6057 48.7639 30.3979 48.4996 31.0276C47.8444 32.5885 49.0476 30.5691 49.7913 31.0554C50.2076 31.3276 48.8728 33.0446 48.7218 33.4304C48.4509 34.1227 48.1086 34.7036 47.6246 35.2568C47.2053 35.736 47.429 35.6065 47.8191 35.2359C49.7627 33.3895 52.2208 32.0566 54.4163 30.5415C55.6871 29.6644 57.4901 28.6304 57.944 27.0415C58.1232 26.4145 57.7383 26.9793 57.5065 27.1456C55.4787 28.6016 53.2354 30.0119 51.069 31.2498C50.9691 31.3069 50.9104 31.4641 50.826 31.5484C50.6129 31.7615 51.3387 31.2201 51.6246 31.1248C51.8224 31.0589 52.1182 31.0083 51.944 31.2984C51.7373 31.643 52.4178 30.649 52.6663 30.3331C53.7461 28.9605 52.5749 31.0257 52.3121 31.4929C52.0738 31.9165 52.1246 31.4436 52.1246 31.2081C52.1246 29.9562 52.3179 28.7914 52.6315 27.5762C52.7805 26.9989 52.9602 26.4341 53.1663 25.8748C53.2293 25.7037 53.5169 25.2794 53.3538 25.3609C53.2747 25.4005 53.1154 25.8629 53.0968 25.9026C52.8294 26.4731 52.5152 27.0188 52.2357 27.5831C52.0784 27.9008 51.8615 28.4752 52.0829 27.7706C52.24 27.2708 52.393 26.4595 52.7496 26.0554C53.433 25.2808 51.4744 27.6826 50.7843 28.4512C49.773 29.5776 48.604 31.1867 47.1385 31.7915C46.4781 32.064 46.7716 29.6271 46.7774 29.4998C46.9229 26.2983 47.1327 23.0408 48.1107 19.972C48.5352 18.64 47.9514 19.6896 47.4441 20.2498C46.7839 20.9787 46.088 21.6775 45.3746 22.354C44.9957 22.7133 43.8905 24.0415 43.2496 24.0415C42.954 24.0415 43.3746 17.3035 43.3746 16.3679C43.3746 16.2796 43.1855 16.3418 43.1107 16.3887C42.1588 16.986 41.4039 17.8994 40.4996 18.5693C40.2288 18.7699 42.4368 17.0492 42.1802 17.8193C42.0472 18.2182 41.3045 19.1812 42.2079 18.9443C42.8013 18.7886 43.4021 18.684 44.0204 18.7568C44.2565 18.7845 44.0268 19.0531 44.0552 19.1665C44.0763 19.2509 44.2112 19.0893 44.2913 19.0554C44.7282 18.8705 45.2098 18.7945 45.6802 18.7637C46.3101 18.7224 47.4323 18.6696 47.8468 19.2776C47.9204 19.3854 47.9897 19.9758 48.0829 19.9165C48.3719 19.7326 48.6096 19.4618 48.8746 19.2498" stroke="black" stroke-linecap="round" stroke-linejoin="round"/>
</g>
<defs>
<clipPath id="clip0">
<rect width="93" height="49" fill="white"/>
</clipPath>
</defs>
</svg>
