<svg width="1292" height="21" viewBox="0 0 1292 21" fill="none" xmlns="http://www.w3.org/2000/svg">
<path d="M1292 -0.000488281L1292 11.2215C1283.65 11.4459 1275.28 11.5999 1266.93 11.4824C1254.22 11.3154 1241.52 10.7856 1228.82 10.3863C1220.69 10.1254 1212.55 9.94528 1204.45 9.50945C1188.08 8.62996 1171.78 7.53386 1155.43 6.65698C1144.67 6.07501 1133.84 5.67049 1123.03 5.27381C1104.77 4.6031 1086.51 3.88281 1068.23 3.41044C1051.76 2.98766 1035.27 2.78671 1018.79 2.65622C1010.65 2.59097 1002.48 2.7867 994.347 3.079C980.815 3.56702 967.301 4.20641 953.782 4.8197C944.308 5.2477 934.833 5.6496 925.406 6.22114C907.864 7.2833 890.353 8.56991 872.799 9.56162C856.085 10.5063 839.336 11.2553 822.592 11.9887C811.429 12.4793 800.249 12.7716 789.073 13.1839C778.306 13.5702 767.539 14.0138 756.773 14.3531C741.867 14.8229 726.953 15.1647 712.052 15.6736C702.939 15.9868 693.839 16.4748 684.739 16.9498C677.982 17.3021 671.242 17.7849 664.497 18.166C654.385 18.7375 644.256 19.3534 634.144 19.7944C623.532 20.2538 612.886 20.4443 602.274 20.9166C596.912 21.1567 591.585 20.9323 586.951 19.4839C583.773 18.4896 580.965 17.8397 577.36 17.918C572.459 18.0146 567.528 17.7353 562.618 17.5527C555.878 17.2917 549.147 16.8637 542.402 16.7306C534.289 16.574 526.162 16.6653 518.039 16.6184C516.679 16.6184 515.025 16.9368 513.953 15.7023L517.178 14.9194C512.342 13.7946 509.646 13.7268 504.865 14.4262C501.739 14.8829 498.616 15.2091 495.391 14.661C493.282 14.2975 491.117 14.0675 488.931 13.9747C481.993 13.7137 475.046 13.5963 468.108 13.3718C463.922 13.2387 459.748 12.9256 455.562 12.8812C454.171 12.8655 452.117 11.9443 451.221 13.531C451.165 13.6354 450.256 13.7241 450.002 13.6093C446.126 11.8451 442.28 13.1787 438.611 13.8155C435.411 14.374 432.375 14.6402 429.136 14.2043C428.038 14.0556 426.074 13.8912 425.833 14.1652C424.399 15.7754 422.056 15.1934 420.049 15.2091C416.561 15.2456 412.65 15.731 409.687 14.9481C405.622 13.8755 401.681 13.5206 397.405 13.3953C389.274 13.1604 381.16 12.7011 373.033 12.3984C370.535 12.307 368.012 12.521 365.514 12.4297C355.04 12.0539 344.575 11.5528 334.096 11.224C329.027 11.0648 323.932 11.2057 318.851 11.1509C317.739 11.1379 316.422 11.0413 315.573 10.6707C312.899 9.49632 310.138 9.37888 307.072 9.90606C304.005 10.4332 300.883 11.0987 297.726 11.2449C290.999 11.5528 284.376 12.6124 277.485 12.1165C273.686 11.8555 269.789 12.0382 265.938 12.0748C258.72 12.1452 251.502 12.4088 244.293 12.3096C234.121 12.1661 223.996 12.2861 213.896 13.0665C210.051 13.364 206.119 13.3274 202.307 13.7163C187.259 15.2872 172.016 16.073 156.747 16.0651C155.054 16.0651 153.301 16.0364 151.677 16.2477C145.601 17.0307 139.584 16.5844 133.534 16.1538C131.35 15.9844 129.138 16.0073 126.966 16.2216C122.613 16.678 118.145 16.5254 113.904 15.7754C111.974 15.4076 109.966 15.2107 107.943 15.1908C103.545 15.2279 99.1531 15.4065 94.7861 15.7258C90.3417 16.0703 85.699 14.5801 81.3966 16.2921C80.9272 16.4774 80.0314 16.3782 79.3898 16.2764C72.7747 15.2325 66.1467 15.149 59.368 15.7284C55.9226 16.0233 52.3177 15.6971 48.7906 15.7284C42.8856 15.799 36.9911 15.3988 31.2582 14.5383C25.793 13.7241 19.8928 13.9825 14.1864 13.7371C12.8428 13.6771 11.5205 13.4762 10.1769 13.364C6.78894 13.0925 3.39661 12.8316 -1.09992e-06 12.581L0 -0.000601231L1292 -0.000488281Z" fill="#f0e511"/>
</svg>
