<svg width="1292" height="21" viewBox="0 0 1292 21" fill="none" xmlns="http://www.w3.org/2000/svg">
<path d="M0 21.0001L0 9.77818C8.35499 9.55374 16.7229 9.39976 25.0736 9.5172C37.7826 9.68423 50.4831 10.214 63.1835 10.6133C71.3103 10.8743 79.4499 11.0543 87.5508 11.4902C103.916 12.3697 120.217 13.4658 136.565 14.3426C147.332 14.9246 158.163 15.3291 168.973 15.7258C187.234 16.3965 205.49 17.1168 223.767 17.5892C240.236 18.012 256.726 18.2129 273.208 18.3434C281.352 18.4086 289.518 18.2129 297.653 17.9206C311.185 17.4326 324.699 16.7932 338.218 16.1799C347.692 15.7519 357.167 15.35 366.594 14.7785C384.136 13.7163 401.647 12.4297 419.201 11.438C435.915 10.4932 452.664 9.74425 469.408 9.01091C480.571 8.52028 491.751 8.22798 502.927 7.81564C513.694 7.4294 524.461 6.98574 535.227 6.64647C550.133 6.17671 565.047 5.83484 579.948 5.32593C589.061 5.01276 598.161 4.52474 607.261 4.04976C614.018 3.69745 620.758 3.21464 627.503 2.83362C637.615 2.26208 647.744 1.64618 657.856 1.20513C668.468 0.745815 679.114 0.555304 689.726 0.0829372C695.088 -0.15716 700.415 0.0672779 705.049 1.51569C708.227 2.51001 711.035 3.15984 714.64 3.08154C719.541 2.98498 724.472 3.26423 729.382 3.44691C736.122 3.70789 742.853 4.13589 749.598 4.26898C757.711 4.42557 765.838 4.33423 773.961 4.3812C775.321 4.3812 776.975 4.06281 778.047 5.29723L774.822 6.08015C779.658 7.20496 782.354 7.27281 787.135 6.5734C790.261 6.11669 793.384 5.79047 796.609 6.33852C798.718 6.70207 800.883 6.93209 803.069 7.02489C810.007 7.28586 816.954 7.4033 823.892 7.62774C828.078 7.76084 832.252 8.07401 836.438 8.11837C837.829 8.13403 839.883 9.05527 840.779 7.46854C840.835 7.36415 841.744 7.27542 841.998 7.39025C845.874 9.15444 849.72 7.82086 853.389 7.18408C856.589 6.62559 859.625 6.3594 862.864 6.79523C863.962 6.94398 865.926 7.1084 866.167 6.83437C867.601 5.22416 869.944 5.80613 871.951 5.79047C875.439 5.75393 879.35 5.26852 882.313 6.05145C886.378 7.12406 890.319 7.47898 894.595 7.60425C902.726 7.83913 910.84 8.29845 918.967 8.60118C921.465 8.69252 923.988 8.47852 926.486 8.56986C936.96 8.94566 947.425 9.44674 957.904 9.77557C962.973 9.93476 968.068 9.79383 973.149 9.84864C974.261 9.86169 975.578 9.95825 976.427 10.3288C979.101 11.5032 981.862 11.6207 984.928 11.0935C987.995 10.5663 991.117 9.90084 994.274 9.75469C1001 9.44674 1007.62 8.38718 1014.52 8.88303C1018.31 9.14401 1022.21 8.96132 1026.06 8.92479C1033.28 8.85432 1040.5 8.59074 1047.71 8.68991C1057.88 8.83345 1068 8.7134 1078.1 7.93308C1081.95 7.63557 1085.88 7.6721 1089.69 7.28325C1104.74 5.71234 1119.98 4.92653 1135.25 4.93447C1136.95 4.93447 1138.7 4.96318 1140.32 4.75179C1146.4 3.96886 1152.42 4.41513 1158.47 4.84574C1160.65 5.01513 1162.86 4.99227 1165.03 4.77789C1169.39 4.32153 1173.86 4.47417 1178.1 5.22415C1180.03 5.59192 1182.03 5.78882 1184.06 5.80874C1188.46 5.77161 1192.85 5.59303 1197.21 5.27374C1201.66 4.92925 1206.3 6.41942 1210.6 4.70742C1211.07 4.52213 1211.97 4.6213 1212.61 4.72308C1219.23 5.76698 1225.85 5.8505 1232.63 5.27113C1236.08 4.97623 1239.68 5.30245 1243.21 5.27113C1249.11 5.20057 1255.01 5.60068 1260.74 6.46118C1266.21 7.27542 1272.11 7.01706 1277.81 7.26237C1279.16 7.3224 1280.48 7.52335 1281.82 7.63557C1285.21 7.90698 1288.6 8.16796 1292 8.41849V21.0001L0 21.0001Z" fill="#f0e511"/>
</svg>
