<svg width="403" height="259" viewBox="0 0 403 259" fill="none" xmlns="http://www.w3.org/2000/svg">
<path d="M36.7801 81.0538V18.1822H52.6998V-0.000244141H0V18.1822H16.0295V81.0538H36.7801Z" fill="white"/>
<path d="M111.221 81.0538V42.827C111.221 26.9447 102.767 18.1822 88.8237 18.1822C81.5775 18.1822 75.6488 21.1395 73.0138 26.0685V-0.000244141H54.7884V81.0538H73.0138V46.8797C73.0138 39.3219 76.3075 35.2692 83.2244 35.2692C89.9216 35.2692 92.9958 39.7601 92.9958 47.6464V81.0538H111.221Z" fill="white"/>
<path d="M179.054 56.1899C179.383 54.5469 179.493 53.123 179.493 51.3705C179.493 32.5309 165.55 18.1822 147.324 18.1822C129.428 18.1822 115.375 33.2976 115.375 50.8228C115.375 68.8957 130.087 83.0254 147.654 83.0254C160.499 83.0254 171.588 75.2486 177.407 61.9951H158.743C155.778 65.8288 152.594 67.6908 147.654 67.6908C140.188 67.6908 134.369 63.0905 133.381 56.1899H179.054ZM133.601 43.9223C135.028 37.4599 140.737 33.5167 147.324 33.5167C154.351 33.5167 159.841 37.6789 161.268 43.9223H133.601Z" fill="white"/>
<path d="M26.1303 169.096V143.684H35.792C59.0677 143.684 67.4118 130.431 67.4118 115.425C67.4118 104.472 61.9223 95.1613 53.139 91.1086C48.8571 89.137 42.3794 87.9322 33.7059 88.0417H6.2581V169.096H26.1303ZM26.1303 125.502V106.224H34.2549C43.4773 106.224 47.5396 109.181 47.5396 115.753C47.5396 122.654 43.3676 125.502 35.0234 125.502H26.1303Z" fill="white"/>
<path d="M87.9145 169.096V135.579C87.9145 128.678 91.4278 124.626 102.297 124.516V106.224C95.2705 106.224 90.2201 108.305 87.0362 114.768H86.8166V108.305H69.6891V169.096H87.9145Z" fill="white"/>
<path d="M166.137 138.427C166.137 120.025 151.645 106.334 133.31 106.334C115.084 106.334 100.482 119.806 100.482 138.646C100.482 157.266 114.755 170.958 133.31 170.958C151.645 170.958 166.137 157.485 166.137 138.427ZM133.31 153.98C125.075 153.98 118.708 146.97 118.708 138.646C118.708 130.321 125.185 123.311 133.2 123.311C141.764 123.311 147.912 130.54 147.912 138.646C147.912 146.751 141.873 153.98 133.31 153.98Z" fill="white"/>
<path d="M234.429 169.096V88.0417H216.204V113.453C211.044 108.305 205.335 106.224 198.308 106.224C180.522 106.224 168.115 120.354 168.115 138.536C168.115 156.938 180.192 171.067 198.637 171.067C207.311 171.067 213.459 168.11 216.863 162.524H217.082V169.096H234.429ZM201.602 154.09C192.818 154.09 186.341 147.627 186.341 138.427C186.341 129.555 193.148 123.202 201.711 123.202C210.714 123.202 217.192 129.993 217.192 138.427C217.192 147.408 210.495 154.09 201.602 154.09Z" fill="white"/>
<path d="M298.574 169.096V108.305H280.349V142.041C280.349 149.489 276.835 154.09 269.918 154.09C263.002 154.09 260.147 150.366 260.147 142.37V108.305H241.922V146.094C241.922 163.4 252.571 171.067 265.417 171.067C273.651 171.067 278.482 168.219 281.117 162.633H281.337V169.096H298.574Z" fill="white"/>
<path d="M367.719 131.745C364.316 116.301 351.251 106.224 335.221 106.224C317.654 106.224 303.272 120.354 303.272 138.536C303.272 156.5 317.545 171.067 335.55 171.067C351.141 171.067 364.206 161.209 367.829 145.984H349.274C346.53 151.242 342.248 154.09 336.099 154.09C327.645 154.09 321.607 147.518 321.607 138.646C321.607 130.102 327.316 123.202 335.66 123.202C341.918 123.202 346.639 126.049 349.274 131.745H367.719Z" fill="white"/>
<path d="M394.217 169.096V122.106H403V108.305H394.217V88.0417H375.991V108.305H366.988V122.106H375.991V169.096H394.217Z" fill="white"/>
<path d="M58.6285 199.743C58.5188 188.899 54.3467 182.437 45.6732 177.946C41.3913 175.755 36.6703 174.55 31.2905 174.55C16.3589 174.55 2.96436 184.627 2.96436 198.428C2.96436 208.943 9.00288 215.953 22.2876 221.321C29.6436 224.278 38.6465 227.126 38.6465 233.588C38.6465 237.97 35.1332 241.365 30.8513 241.365C25.6912 241.365 22.3974 236.984 22.2876 230.302H1.64687V232.055C1.64687 249.47 13.2847 258.671 30.9611 258.671C48.5277 258.671 59.2873 249.47 59.2873 233.807C59.2873 223.183 54.7858 216.72 36.8899 209.053C27.9968 205.219 23.6051 203.029 23.6051 198.209C23.6051 194.595 26.8989 191.856 30.7416 191.856C34.8038 191.856 37.2192 193.937 38.0976 199.743H58.6285Z" fill="white"/>
<path d="M119.37 257.138V218.911C119.37 203.029 110.916 194.266 96.9723 194.266C89.7261 194.266 83.7973 197.223 81.1623 202.152V176.084H62.937V257.138H81.1623V222.964C81.1623 215.406 84.4561 211.353 91.3729 211.353C98.0702 211.353 101.144 215.844 101.144 223.73V257.138H119.37Z" fill="white"/>
<path d="M189.618 226.469C189.618 208.067 175.126 194.376 156.79 194.376C138.565 194.376 123.963 207.848 123.963 226.688C123.963 245.308 138.236 259 156.79 259C175.126 259 189.618 245.527 189.618 226.469ZM156.79 242.022C148.556 242.022 142.188 235.012 142.188 226.688C142.188 218.363 148.666 211.353 156.681 211.353C165.244 211.353 171.393 218.582 171.393 226.688C171.393 234.793 165.354 242.022 156.79 242.022Z" fill="white"/>
<path d="M259.499 257.138L278.273 196.347H259.499L250.386 234.136H250.166L240.065 196.347H224.695L214.704 234.136H214.484L205.371 196.347H186.487L205.152 257.138H222.06L232.27 217.816H232.49L242.7 257.138H259.499Z" fill="white"/>
</svg>
