<svg xmlns="http://www.w3.org/2000/svg" width="126" height="28" viewBox="0 0 126 28"><g fill="#000" fill-rule="evenodd"><path d="M9.017 14.025h-5.83v-.154l1.625-.763v-9.52h-.02s-.478 0-.918.116c-.21.076-.458.152-.783.46-.323.305-2.063 2.083-2.063 2.083l-.192-.078.268-3.096h9.786l.324 3.096-.19.078S9.284 4.468 8.96 4.162c-.326-.307-.574-.383-.785-.46-.44-.115-.82-.095-.82-.095v9.482l1.642.763.02.172zm75.408 0h-5.83v-.154l1.625-.763v-9.52h-.02s-.478 0-.918.116c-.21.076-.46.152-.783.46-.327.305-2.065 2.083-2.065 2.083l-.193-.078.25-3.096h9.787l.323 3.096-.19.078s-1.74-1.778-2.066-2.084c-.324-.307-.572-.383-.783-.46-.44-.115-.823-.095-.823-.095v9.482l1.646.763.04.172zM22.97 4.01l1.318-.766v-.152H19.11v.152l1.338.746v4.07l-4.99.04V4.01l1.338-.766v-.152h-5.2v.152l1.358.766v9.098l-1.357.763v.156h5.2v-.172l-1.34-.764V8.71l4.99.038v4.36l-1.337.763v.156h5.178v-.172l-1.318-.764M88.343 13.108l-1.338.764v.135h5.18v-.154l-1.338-.764V4.01l1.338-.766v-.152h-5.18v.133l1.338.765M46.214 4.258s-.287.19-.383.23c-.055.038-.477.23-.477.23l.02.132s.21.058.323.076c.135.02.346 0 .346 0s.02-.133.133-.266c.135-.115.192-.21.192-.21l-.153-.192zm.688 2.12c.038-.056.286-.534.095-.82-.21-.286-.592-.726-.592-.726l-.038.037s.153.19.23.304c.076.117.324.385.305.707 0 .308-.153.538-.21.595-.06.056.17-.04.21-.096"/><path d="M45.89 5.137c0 .02-.135-.096-.326-.113-.192-.02-.325-.078-.325-.078l.04-.364s.092-.037.17-.037c.057 0 .172-.058.172-.058l-.04-.114s-.094 0-.21.057c-.095.04-.287.057-.287.057l-.017.61s.285.02.42.04c.152.02.363.096.363.096l.04-.096zm5.332 6.328c.02-.04.076-.21.076-.27 0-.076-.076.02-.095.08-.038.055-.095.055-.095.055s.075-.135.095-.228c.02-.078-.057-.116-.077-.078-.018.058-.076.095-.115.117-.036.018.02-.116.04-.154.02-.058.02-.115.02-.115s-.21-.094-.307-.112c-.115-.04-.21-.115-.287-.115-.076 0 .02.095.04.152.017.057.286.496.286.555 0 .056-.04.267-.076.344-.04.04-.097.04-.13.04.045.024.105.047.167.036.114-.02.325-.076.383-.172.02-.033.047-.05.076-.063-.01-.02-.012-.05 0-.07m19.152-6.73c-.057.02-.497.4-.572.46-.078.057-.708.133-.823.133-.116 0-.403.056-.403.056l.096.268s.115-.02.19-.02c.077 0 .25.077.404.135.153.057.496.287.61.326.116.037.402.037.497-.058.096-.094.42-.248.48-.285.055-.04.418-.022.418-.022l-.02-.113s-.17-.057-.266-.078c-.096-.018-.343-.018-.343-.018s-.04.038-.097.15c-.057.117-.23.21-.4.23-.172.02-.27-.113-.383-.172-.116-.057-.364-.133-.42-.133-.06-.02-.076-.037.037-.076.096-.02.612-.077.727-.116.115-.037.44-.422.496-.48.076-.036.537 0 .537 0l-.096-.247s-.25.02-.324.02c-.077 0-.268.037-.346.037M69.61 3.8c0 .17-.25.17-.402.15-.155-.036-.248-.018-.38.06-.136.057-.575.535-.575.535l.095.19s.44-.23.593-.23c.078 0 .65.02.842.02.135 0 .152-.04.172-.21.02-.192.228-.344.363-.344.134 0 .344.04.344.04s-.114-.174-.247-.19c-.134-.02-.268.036-.403.075-.133.056-.228.363-.324.42-.097.058-.383.02-.535.02-.153 0-.554.15-.554.15s.248-.227.4-.323c.155-.095.403-.056.575-.113.174-.06.136-.423.136-.538 0-.113.42-.248.42-.248l-.037-.06-.423.138c-.115.057-.057.285-.057.457m-31.175 9.65l.84-.306s-1.223-.476-1.53-.63c-.304-.153-1.222-.706-1.222-.706l.25.82s.437.25.63.346c.514.247-.038-.02 1.032.477"/><path d="M70.757 5.96c-.057.036-.19.17-.248.208-.04.04-.25.078-.308.174-.056.094-.228.076-.363.037-.134-.038-.25-.058-.4-.058-.156 0-.52.076-.576.096l.04.38s.287.097.362.155c.077.057.153.076.25.115.095.037.458.037.514.094.06.04.153.135.25.135.094 0 .592 0 .745.02.152.017.286.017.286.017V7.24s-.268-.115-.344-.115c-.076 0-.363-.02-.438 0-.077.02-.25.02-.25.02s.25-.153.288-.21c.037-.058.095-.154.228-.173.135-.02.344-.02.42-.02.076 0 .287.057.287.057s0-.173-.056-.21c.018.037-.343-.02-.458-.02-.135 0-.344.116-.42.172-.08.057-.364.287-.364.287s-.152-.038-.21-.06c-.057-.017-.363-.056-.44-.075-.076-.018-.363-.133-.4-.153-.04-.02-.06-.135 0-.135h.343c.133 0 .307.02.457.04.154.02.326.02.403-.04.076-.056.496-.533.554-.552.056-.04.534-.04.534-.04s0-.17-.037-.17c-.04 0-.345.018-.42.018-.078 0-.17.078-.23.096M68.98 7.774c.096-.04.44-.02.516-.02.076 0 .324.114.382.096.056-.018.575-.227.69-.266.112-.04.285 0 .42 0h.36v-.192c-.02.02-.323.057-.4.057-.075 0-.286.018-.363.038-.076.02-.402.076-.496.115-.097.037-.117-.02-.252-.076-.114-.06-.362-.078-.534-.115-.153-.04-.44 0-.44 0s-.037.228-.076.363l-.076.268s.056.037.115.056c.056.02.267.132.325.152.076.02.305.115.4.152.095.02.17.076.25.058.075-.017.44-.19.534-.248.097-.058.48-.04.48-.04v-.19s-.27-.057-.326-.057c-.057 0-.153.096-.21.153-.076.058-.346.115-.403.172-.057.058-.114.04-.248.04s-.23-.078-.326-.154c-.094-.078-.25-.154-.325-.172-.077-.04-.153-.04-.133-.097.018-.058.037-.038.133-.095m-7.4 3.67c.02.076.155.44.193.572.038.133-.21.153-.21.153l.018.078.575-.21-.02-.058s-.152.057-.19-.058c-.038-.114-.134-.457-.134-.457l.574.533.134-.018.25-.67s.075.383.075.518c0 .152-.116.113-.116.113l.04.077h.267c.096 0 .44.06.44.06l-.038-.08s-.173-.075-.23-.17c-.037-.116-.076-.46-.096-.536-.017-.075.23-.075.23-.075l-.02-.075-.63-.04-.21.478-.48-.42-.466.11c-.023.046-.045.09-.06.134.04.002.087.012.107.043m4.704-6.002c.21-.135.23-.287.248-.326.02-.04-.115-.094-.152-.076-.037.02-.325.268-.403.288-.076.02-.286.04-.438-.037-.154-.077-.25-.193-.25-.193-.02.04-.06.307.19.383.25.078.593.096.804-.037m-.363-.898c.04.057.136.018.136-.04.02-.056.02-.132.02-.132s.093.057.114.096c.018.034.057.17-.115.227-.172.057-.27-.152-.27-.267 0 0 .08.056.116.115m-.323.057c.018.115.21.23.344.267.133.038.382-.06.46-.077.075-.02.093.057.17.096.077.036.173.036.248.036.078 0 .307 0 .384-.037.076-.04.172-.136-.038-.097-.192.04-.42-.076-.612-.152-.192-.077-.192-.402-.192-.402s-.363.02-.476.02c-.117-.02-.287-.078-.287-.078s-.058.04-.076.058c-.02.02-.077.04-.096.077-.02.04-.114.02-.19.02-.077 0-.096.114-.077.17 0 0 .057.058.114.04.06-.02.213-.096.25-.096.057 0 .038.036.077.152M60.97 9.936c-.037 0-.096.018-.096.018v.058l.192.037.077-.65h-.04s-.036.097-.094.097c-.04 0-.632-.098-.69-.118-.037-.018-.057-.133-.057-.133h-.037v.21c0 .04-.097.383-.097.383l.248.096v-.06s-.134-.094-.152-.112c-.022-.04.057-.213.057-.213l.363.062s-.02.074-.038.13c0 .06-.077.06-.077.06v.058l.23.037V9.84s-.057-.02-.057-.058c0-.04.038-.153.038-.153l.306.038s-.017.075-.017.133c0 .06-.02.136-.06.136"/><path d="M60.97 9.19c-.058.02-.096.02-.17.02-.078 0-.117-.02-.117-.06v-.19l.346-.02c0 .002.016.098.016.134 0 .04-.017.095-.076.115m.02-.42h-.67c-.057 0-.057-.077-.057-.077h-.037l-.02.345h.057s0-.097.057-.097l.21.002v.188c0 .06.06.192.135.192.057 0 .19.02.286 0 .096-.02.193-.17.193-.248v-.4h-.058s-.04.095-.095.095m-5.238 4.166l-.114-.096-.574.287c-.116.06-.42.172-.42.172l.115.075s.285-.132.38-.154c.134-.054.612-.284.612-.284m.115.095s-.384.173-.48.23c-.093.058-.457.23-.457.23l.115.096.936-.496-.113-.06zm.248.765c-.038.04-.076.06-.134 0-.075-.057.06-.113-.038-.19-.096-.078-.228.057-.265-.02-.02-.058-.02-.075.075-.095.115-.056.25-.02.325.037.076.06.076.23.038.268m.23-.23c-.058.04-.096-.055-.058-.114.038-.036.19-.112.19-.112l-.133-.06s-.132.06-.19.097c-.06.04-.192-.037-.115-.076.074 0 .19-.097.19-.097l-.096-.037-.457.23c-.116.055-.5.227-.5.227l.097.076s.19-.077.248-.134c.058-.04.115.077.058.116-.058.037-.192.093-.192.093l.095.04s.135-.057.21-.096c.077-.038.153.018.116.055-.04.04-.173.118-.173.118l.23.074.897-.477-.114-.056s-.248.113-.306.132M54.26 6.322c-.02.02-.075.02-.114 0-.037-.02-.4-.287-.44-.307-.02-.02-.037-.056-.02-.095l.04-.04-.076-.037-.192.325.038.02s.076-.057.116-.04c.038.02.497.326.534.346.04.02.04.057.04.057l-.02.057.038.02.19-.325-.057-.056-.076.076zm1.148 6.346c.02 0-.288.152-.345.172-.056.04-.61.287-.61.287l.095.076.955-.46-.095-.075zm-1.702-5.064c-.02.095-.057.19-.095.19-.037 0-.267.018-.46-.038-.208-.057-.15-.212-.13-.288.037-.115.38-.076.534-.02.132.06.172.06.152.155m-.268-.346c-.152-.037-.496 0-.535.192-.04.133-.076.344.23.42.305.077.612.096.688-.193.097-.285-.247-.38-.382-.42m.058-.954l.02-.037-.058-.02s-.096.133-.134.172c-.037.057-.097.19-.097.19h.06s.133-.094.19-.076l.516.19s-.268 0-.363.04c-.115.037-.48.096-.48.096-.036.037-.112.172-.112.172l.02.02s.037-.058.093-.04c.06.02.575.19.613.23.04.018.04.094.04.094l.038.02.115-.305-.038-.02s-.02.095-.076.095c-.057 0-.478-.19-.478-.19s.46-.058.555-.097l.19-.04.058-.112s-.63-.268-.67-.287c-.037 0-.018-.058 0-.097m.096 1.777c-.056 0-.57-.037-.63-.037-.056 0-.056-.135-.056-.135h-.077s-.04.172-.04.23v.172h.06s0-.095.04-.095h.19l.018.44h-.23c-.038 0-.057-.134-.057-.134h-.057v.402h.058s.04-.115.096-.115h.574c.037 0 .095.115.095.115h.04s.037-.135.017-.192c-.018-.056 0-.19 0-.19h-.057s-.02.114-.095.114c-.078 0-.25-.02-.25-.02l.02-.44s.21.038.248.038c.038 0 .095.04.095.078v.077l.08-.04v-.17c0-.038.036-.134.036-.134h-.056s0 .037-.06.037m7.036-.02c-.038.02-.286.04-.344.04-.056 0-.076-.096-.076-.096h-.04s.04.135.04.192c0 .037.02.172.02.172h.037s.02-.077.02-.096c0-.04 0-.057.036-.04.038 0 .345-.017.345-.017s.324.248.363.266c.037.02.037.116.037.116h.058s.02-.115.02-.172v-.172h-.058v.077c0 .018-.02.038-.076 0l-.288-.19s.19-.308.23-.345c.037-.04.094.057.094.057h.04l-.058-.287-.04-.02-.037.02s0 .076-.037.113c-.04.04-.19.23-.21.29-.02.036-.038.075-.077.093m-5.982-2.54c-.06 0-.402.04-.535-.04-.135-.075.17-.208.227-.208.06 0 .248.076.248.076l.02-.04-.21-.247-.058.058v.056s-.095.022-.19.06c-.097.038-.19.17-.172.247.02.08.134.173.325.173.192 0 .344-.02.4.04.06.057.02.188-.115.208-.132.02-.248-.075-.248-.075l-.02.04.268.284v-.114s.096-.057.192-.057c.096-.02.115-.23.076-.327-.057-.094-.133-.133-.21-.133m.9 2.904c.02-.037 0-.133 0-.19 0-.04-.02-.078-.06-.095-.056-.04-.19-.02-.265-.02-.098 0-.116-.06-.098-.077h-.037s-.038-.04-.038.018c.018.06.134.116.287.116.133 0 .114.057.057.057-.06 0-.135 0-.23-.018-.097-.02-.134 0-.23-.04-.115-.036-.154 0-.19 0-.04 0-.04.02-.077.077-.04.06-.058.096.02.152.076.06 0 .06-.04.077-.038.042 0 .042.06.042.056 0 .15-.077.15-.06 0 .038-.23.155-.19.155.04 0 .04.037.19 0 .154-.04.154-.095.192-.117.038-.037.153-.076.23-.055.095.018-.02.036-.077.055-.058.04-.21.096-.133.096.057 0 .172 0 .21-.037.038-.02.17-.038.248-.038.076 0 0-.077.02-.098m-.403 1.262c.02.057.574 1.205.574 1.205l.057-.058-.534-1.183h.115l.478 1.09.02-.097-.383-.975h.134l.324.8.038-.112-.248-.688.154-.056.19.553.058-.192-.134-.422.113-.036.077.268.077-.19-.038-.174h.094s.02.116.04.04c0-.06.057-.192.057-.192s-.077.037-.116.076c-.038.037-.516.172-.61.21-.097.04-.478-.038-.557-.038-.075 0 0 .078 0 .078s0 .037.02.094m.402 1.166c-.06-.076-.422-1.05-.422-1.05s-.037.058-.018.114c0 .038.172.48.268.668.095.174.23.44.23.44l.038-.037s-.04-.06-.096-.135m-.324-3.422c.02 0-.078-.018 0 .04.076.058.19.075.247.075.058 0 .038.06-.038.06s-.172-.02-.268-.06c-.077-.056-.133-.076-.192-.095-.057 0-.096.04-.114.095-.038.06-.038.06-.038.078 0 .037.056.077.056.114-.018.04-.095.095-.076.132.04.04.058-.018.096-.038.04-.02.056-.037.115-.02.06.02-.115.097-.135.116-.018.04 0 0 .096 0 .098 0 .115-.04.154-.04.038-.02.096-.056.153-.075.057-.018.152-.037.133 0-.038.04-.248.056-.23.096.02.018.077-.02.154-.02.076 0 .173.038.23 0 .056-.038 0-.212 0-.25 0-.036.018-.056.037-.095.038-.037-.038-.037-.173-.056-.133-.02-.133-.04-.21-.06m-.154-.285c.038.018.076 0 .154-.02.077-.02.095-.02.133-.04.038-.016.114-.016.133-.016.02 0-.036.055 0 .075.04.018.098 0 .155 0 .038 0 .02-.04 0-.076-.02-.04 0-.06.02-.077.018 0 .018-.078 0-.135-.04-.06-.06-.04-.096-.115-.04-.077.096-.057.152-.096-.038.02-.02-.04-.056-.04-.04 0-.194.04-.194.116 0 .06.078.135.117.154.038.038.038.077.038.077s-.096.04-.192 0c-.076-.04-.038-.077-.114-.096-.075-.02-.113.057-.113.057-.002 0 .017.056.017.078 0 .017-.018.037-.038.076-.02.036-.06.036-.117.036-.056 0-.038.04 0 .04m1.09.036c-.038.04-.038 0-.038-.057.018-.056.057-.154.057-.154 0 .06.02.175-.02.212m-.17-.057c-.058.02-.058 0-.058-.076 0-.08.057-.192.057-.192 0 .076.077.248 0 .267m.038 1.05C55.98 8.08 55.98 7.95 56 7.89c.018-.058.057.058.115.21.057.133.19.172.25.19.055.02 0 .078-.06.115-.056.04-.19.058-.287.058-.094 0-.017.037-.017.076 0 .037-.154.02-.172.037-.02.02.057.02.19.04.154.018.25 0 .365-.078.114-.077.057-.42.037-.48-.018-.056-.115-.208-.115-.265 0-.058.115-.078.115-.117v-.764c0-.076.02-.152.04-.21.018-.057 0-.133-.058-.114-.04 0-.04.037-.077.115-.038.077 0 .133.02.19.02.058.02.574.02.67 0 .096-.06-.23-.078-.324-.02-.095-.038-.23-.038-.326 0-.076.037-.306.055-.382.04-.057.097-.19.097-.248 0-.057-.038-.096-.038-.096s-.04.02-.06.058c-.036.038-.036.077-.036.077h-.174l-.037-.096s-.018.02-.056.04c-.038.017-.038.056-.038.132 0 .075.02.055.02.114 0 .057.057.076.095.094.038.02-.038.078-.06.135-.036.04-.036-.02-.055-.057-.036-.037-.07-.024-.108-.053-.004.01-.008.02-.008.033 0 .057.02.707.02.784 0 .076.058.152.135.152.057 0 .077-.057.057-.113-.018-.06-.095-.06-.095-.097 0-.04.02-.06.056-.04.04.02.154.25.154.325 0 .076-.057.04-.115 0-.056-.037-.133 0-.19.04-.058.036.057.458.057.515 0 .078-.096.058-.115.095-.04.04.152.04.267.04.115-.02-.02-.096-.06-.192m12.62 4.855l-.097-.323s.133 0 .248.037c.133.02.172.076.21.172.058.095-.018.174-.075.174-.057 0-.287-.06-.287-.06m.574.65c.057 0 .572.078.572.078l-.02-.06s-.075-.017-.17-.075c-.097-.076-.135-.23-.172-.285-.038-.077-.173-.135-.173-.135s.21-.192.173-.248c-.02-.06-.02-.172-.268-.23-.248-.077-1.375-.268-1.375-.268l.074.078s.136.057.175.133c.017.076.19.61.228.69.02.075-.152.017-.152.017v.058l.82.133-.016-.04s-.155-.056-.173-.093c-.018-.04-.074-.23-.074-.23s.19.076.304.154c.115.076.192.324.25.324m-22.175-.65l-.02.077 1.34-.38.057-.346s-.212.268-.384.346c-.17.075-.305.057-.305.057l.057-.422s.153 0 .192.02c.056.02.078.116.078.116l.074-.42s-.037.057-.113.133c-.077.057-.19.057-.19.057l.075-.287s.192-.095.305-.095c.135 0 .096.132.096.132l.116-.02.075-.38-.668.21c-.25.075-.67.23-.67.23v.056h.057s.21-.057.21.057c0 .115-.094.593-.152.69-.058.095-.23.17-.23.17m-.993-.477v-.074s-.096.055-.307.112c-.19.057-.61.096-.61.096v.056h.19c.057 0 .057.077.038.21-.038.136-.075.613.593.42.67-.188.535-.667.554-.725.02-.058.058-.25.058-.25l.19-.056v-.076l-.65.172v.04s.173-.06.173-.023c0 .06-.056.344-.076.535-.037.25-.46.442-.44.194.02-.25.077-.498.135-.537.056-.058.152-.097.152-.097m-4.34.46s.25.036.344.056c.096.02 0 .23-.018.325-.02.096-.135.248-.267.287-.134.017-.363-.04-.363-.04l.305-.63zm-.803.534c-.077.096-.344.135-.344.135s.687.057.783.076c.152.037.917.076 1.108-.21.133-.23.153-.44.02-.516-.135-.057-1.07-.172-1.264-.172-.19 0-.113.056-.113.056s.133.02.096.096c-.04.078-.19.422-.287.535zm2.81.02c-.04.095-.25.132-.25.132l-.018.057s.784-.02 1.05-.058c.288-.058.404-.077.404-.077l.056-.248-.056-.018s-.06.094-.135.152c-.152.113-.573.132-.573.132l.115-.305s.133-.04.21 0c.077.038.116.114.116.114l.152-.42s-.152.19-.21.19c-.057 0-.23-.017-.23-.017l.077-.23s.23-.114.363-.077c.135.04.153.172.153.172l.056-.268s-.573.096-.706.116c-.135-.02-.535 0-.535 0l-.02.058s.17.018.132.17c-.038.154-.113.307-.153.422m-.994.057c-.135.06-.23.06-.23.06l-.038.055h.9v-.056l-.173-.04.268-.65.21-.017.018-.08-.896.04v.077s.21-.02.21.078c0 .096-.02.113-.096.304-.06.116-.06.192-.172.23m27.487-.058c-.038-.115-.23-.363-.25-.477-.036-.116.154-.135.154-.116.115.018.21.037.286.17.096.135.153.326.21.46.058.134.078.153-.114.17-.06 0-.25-.093-.287-.208m.878.02c-.017-.096.02-.135-.132-.383-.154-.248-.61-.324-.86-.324-.535-.02-.556.21-.497.38.154.42.575.632 1.012.632.422 0 .498-.21.48-.306M67.26 12.496c.114.076.19.287.228.383.056.075.096.323-.018.323-.115 0-.288-.06-.288-.06l-.02-.036-.132-.63-.02-.077s.134.02.25.096m.306.822c.17-.02.36-.133.36-.21 0-.077-.036-.325-.056-.364-.02-.018-.19-.324-.42-.363-.21-.036-.937-.23-1.11-.286-.018 0-.038-.018-.038-.018l.06.133s.17.057.17.134c.02.076.096.552.115.648.02.098-.17.02-.17.02l.016.078s.92.228 1.073.228m-1.51-1.205v-.076l-.67-.21.02.075s.133.115.152.154c.02.037.076.44.076.44l-.515-.764-.613-.21-.077-.02v.076s.172.115.192.21c.018.096.077.345.096.497.018.154-.19.076-.19.076v.08l.63.19v-.078s-.116-.037-.116-.113c0-.08-.077-.5-.077-.5l.67.86.344.096s-.134-.746-.134-.803c0-.056.21.02.21.02"/><path d="M59.69 12.955l-.88-.994-.077.077.785 1.012s-.058.094-.117.077c-.055-.037-.82-1.07-.82-1.07l-.115.093.727.977-.153.058-.823-1.052s.23-.153.822-.727c.59-.574.898-1.338.917-2.81.02-1.47-.956-2.35-1.454-2.752-.497-.4-1.547-.67-2.885-.116-1.338.555-1.663 2.067-1.684 2.89 0 .093.078.513 0 .532-.075.02-.535.153-.592.153-.058 0-.058-.094-.094-.077-.038.02-.23.04-.287.06-.057.017-.04.112-.04.112s-.056.06-.247.078c-.172.02-.152-.04-.152-.115 0 0-.094-.706.038-1.145.077-.44.23-1.13.67-2.104.306-.686 1.128-1.47 1.128-1.47s.133.153.286 0c.362-.326 1.472-.726 2.41-.708 1.26 0 2.083.63 2.14.63.057 0 .115-.037.133-.076 0 0 1.09.592 1.55 1.74 1.184 3 .286 4.532-.02 5.295-.306.785-1.165 1.435-1.165 1.435zm-.25 1.03c-.113 0-1.03-.018-1.453-.093-.42-.078-.955-.25-.955-.25l-.975.48.135.056s.764-.364.82-.403c.058-.037.21 0 .153.06-.056.057-.782.4-.782.4l.286.097s.63-.307.725-.363c.096-.058.268.018.154.075-.117.076-.728.363-.728.363l.21.076s.726-.383.822-.422c.096-.054.23 0 .133.06-.096.038-.783.42-.783.42l.287.075s.747-.38.88-.457c.115-.078.19.037.115.094-.076.058-.783.44-.783.44s.228.075.382.075c.153 0 .038.115-.02.134-.056.02-.784 0-1.435-.23-.65-.23-1.854-.666-2.33-1.26-.48-.594-.44-.535-.46-.67-.02-.076.153-.057.192 0 .037.057.113.096.113.096s.135-.096.172-.133c.04-.04.116.076.078.113-.04.04-.154.135-.154.135l.136.094s.363-.21.42-.21c.057 0 .17-.04.21-.076l.288-.153-.135-.132-.23.133s.018.134-.058.134c-.077.02-.057-.115-.096-.152-.037-.04-.23 0-.23-.057s.117-.135.173-.115c.056.02.152.076.152.076l.172-.115s-.153-.304-.057-.382c.096-.076.114-.096.152-.037.038.058.993.975 1.72 1.282.726.324 1.166.44 1.472.477.305.038 1.108.094 1.28.038.153-.04-.057.21-.172.228zm-4.28.976c-.384 0-.765-.056-.765-.056s-.096-.46-.154-.65c-.056-.192.06-.287.173-.246.115.035.25.17.23.246-.02.078-.154.344-.154.344s0 .058.057.095l.153.06s.287-.364.63-.193c.346.172.212.4-.17.4zm-.517-2.312c.115.116-.038.192-.135.116-.076-.077.077-.172.135-.116zm2.12-3.86h-2.35s.02-1.376.554-1.91c.536-.536.86-.862 1.797-.937v2.847zm-.075 3.556l-.19.152s-.058-.018-.154-.04c-.095-.036-.267-.075-.305-.132 0 0 .226 0 .343.02h.305zm-1.262-1.3c-.056-.097-.44-1.032-.46-1.09 0-.058 0-.27-.036-.27-.04-.016-.19-.227-.267-.323-.078-.114-.058-.21-.04-.247 0 0 0-.02.02-.04.02-.018 1.51-.018 1.51-.018s.134-.077.23-.057c.095 0 .057.096.077.133.018.04.018.23.056.173.04-.057.172-.057.172.04 0 .094-.477 1.3-.477 1.337 0 .04-.077.19-.077.23 0 .037-.343.21-.496.285-.154.078-.154-.054-.21-.152zm.21 1.07c.02-.038.192-.42.345-.65.153-.25.212-.323.384-.286.133.017.17.095.096.248-.077.152-.65.668-.727.707-.076.037-.115.017-.096-.02zm2.255 1.03c-.112-.054-.323-.095-.36-.17-.04-.078.113-.173.19-.173 0 0 .23.135.267.23.058.077.04.173-.096.114zm.04-.666c-.04-.04.154-.23.154-.23s.67.918.688.955c.02.04-.115.096-.172.076-.057-.018-.63-.764-.67-.802zm-.21-1.148s.193-.19.345-.23c.152-.038.305.154.19.267-.133.115-1.454 1.397-1.454 1.397s0-.096.347-.555l-.994-.06.115-.152h.993l.06-.096-.937-.037.114-.154h.937l.057-.093-.898-.02.155-.23.973-.037zm-.17-4.205h-.155s-.018-.057-.057-.096c-.058-.038-.153 0-.21.056-.058.04.02.383-.096.326-.115-.06-.134-.287-.172-.46-.02-.17.097-.42.21-.458.46-.172.497.63.48.63zm.285-.19c0 .057-.02.19-.02.19h-.152s0-.154-.038-.248c-.04-.096-.21-.498-.173-.67.04-.19.288-.44.326-.42.057 0 .267.248.25.48-.002.208-.193.61-.193.667zm.726.036c0 .022-.15.346-.19.364-.038.02 0-.23-.115-.266-.114-.04-.21.057-.21.057h-.17c.016-.076.133-.63.475-.67.345-.02.21.498.21.516zm.193 1.034l-.134.02s.017-.23-.155-.23c-.17.018-.056.23-.133.23-.076 0-.19-.096-.23-.23-.037-.134.076-.345.326-.364.248-.018.325.574.325.574zm.343-.535c-.057.094-.133.247-.133.325 0 .074-.02.228-.02.228h-.075s-.096-.4-.155-.515c-.056-.115-.132-.23-.076-.403.058-.17.21-.42.21-.42s.325.23.345.364c.02.132-.037.323-.096.42zm.096.762h-.44c-.057 0-.057-.113 0-.113 0 0 .344 0 .44-.02.096 0 .077.132 0 .132zm-.133.192v.135h-.155v-.136h-.095v.135h-.097v-.193l.518-.02v.212h-.095v-.136h-.076zm-.65 1.97V9.82c0-.056-.02-.095-.078-.095-.057 0-.267-.02-.267-.02s.037-.688.037-.727c0-.037-.018-.037-.018-.037h1.165c.095 0 .19 0 .19.077 0 .057-.113.803-.19.995-.077.19-.345.746-.42.746-.077.017-.42-.326-.42-.364zm-1.435-1.472h.938c.017 0 .037.056.017.076v.727h-.248c-.057 0-.057 0-.057.056 0 .06-.02.48-.02.517 0 .02-.02.02-.056.058-.04.04-.575.42-.614.46-.038.017-.057-.077-.057-.116V8.997c0-.04.018-.076.095-.076zm.574-.518c-.04.04-.173-.113-.27-.076-.095.06-.133.172-.133.248 0 .078-.02.154.038.172.058.02-.018.04-.058.02-.04-.02-.21-.21-.19-.592.02-.23.095-.23.15-.23.117-.038.232-.038.328.097.095.133.17.324.134.36zm.458-1.146h-.498c-.058 0-.038-.057.02-.057h.478c.057 0 .037.058 0 .058zM57.95 8.52c.095 0 .076.056 0 .056h-.383c-.057 0-.057-.017-.057-.055 0-.02.04-.04.057 0 .02.02.287 0 .383 0zm-.21-.897c.056.018.19.21.19.42.02.21-.095.36-.19.36-.097 0-.173-.208-.19-.38 0-.154.132-.4.19-.4zm.075-.21v.132h-.113V7.43h-.096v.115h-.096v-.192h.498v.192h-.095v-.133h-.098zm0 1.317v.094h-.113V8.73h-.096v.094h-.076V8.674h.478v.133h-.078V8.73h-.115zm.422 1.454c-.02.04-.172.21-.23.19-.057-.02-.116-.038-.153-.077-.04-.037-.076-.096-.076-.133v-.248s.018-.057.076-.076h.285c.06 0 .097 0 .097.037v.19c0 .058.018.097 0 .117zm.018-1.76c-.077-.057-.19 0-.23 0-.038 0-.056-.02-.056-.02 0-.037.038-.21.152-.248.115-.037.38-.056.44.135.075.19 0 .364-.04.403-.037.037-.172.076-.228.076-.057 0 .056-.29-.04-.346zm.173 2.427c-.02 0-.02.02-.04.06-.018.037-.038.037-.056.094-.02.058-.154 0-.23 0-.057 0-.094.02-.094.02s0-.02.02-.057c.017-.04.17-.04.228-.04.057 0 .02-.056-.04-.076h-.17c-.06.02-.077.078-.153.097-.078.02-.19 0-.23.02-.038.02-.114.095-.114.115 0 .02-.02.076-.078.076-.057 0-.057-.04-.038-.096.018-.058.097-.152.097-.19 0-.04-.078-.04-.135-.04-.057 0-.115.02-.133.04-.038.02-.077.02-.095-.02-.02-.038.037-.057.095-.094.076-.04.344 0 .4-.02.06 0 .06-.04.06-.04s-.08-.038-.097-.095c-.02-.056 0-.093.057-.115 0 0 .04.022.096.04.018.038.076.02.076-.018.02-.04.02-.04.076 0 .078.056.02.19.078.21.057.038.286.018.324 0 .04-.04.096-.078.057-.1-.04-.017-.212-.036-.268-.036-.057-.018-.095-.074 0-.074s.382 0 .402.093c.02.096-.04.116-.096.116-.057.018-.04.075 0 .075.037 0 .096-.037.133-.037.02-.02.06-.02.06.017-.02.04-.02.116-.02.172 0 .057-.135.057-.135 0 0-.076.06-.096.06-.096h-.097zm.9-3.038c-.232 0-.193.192-.193.192h-.076s-.155-.574.34-.516c.5.096.04.65.04.65s.115-.326-.113-.326zm-5.85 4.57c-.364.096-.46-.097-.517-.193-.057-.096.058-.172.19-.25.136-.075 1.15-.458 1.226-.475.076-.02.324-.06.382-.098.057-.037-.04-.285-.078-.38-.037-.077-.19-.307-.19-.307s-.134.04-.19-.06c-.06-.093.076-.132.076-.132s-.04-.115-.04-.19v-.402c0-.132-.076-.19-.132-.19-.06 0-.48.095-.555.114-.077 0-.154.02-.173-.04-.02-.055-.078-.112-.078-.17 0-.038 0-.114.02-.134.057-.04.286-.097.44-.19.172-.04.324-.077.592.132.267.21.153 1.05.153 1.092 0 .056.21.17.306.285.096.115.173.44.155.744-.02.306-1.225.745-1.588.84zm-.364-2.886c.037-.02.113.133.152.23.076.114.21.38.23.458.038.076-.21.21-.248.113-.058-.096-.078-.19-.115-.344-.02-.152-.077-.42-.02-.457zm0 .78c.02 0 0 .27.267.156.27-.114.25-.288.29-.307.055 0 .13.363-.193.46-.326.095-.44-.038-.44-.136-.02-.077.057-.173.077-.173zm-.478 1.302c-.133-.172-.268-.592-.133-.936.018-.058.094.172.113.25.02.094.04.13.04.13l1.318-.475s0-.48.038-.574c.02-.096.076-.096.076-.057 0 .037.04.533.077.687.04.155.287.46.324.555.038.076.095.172.057.172-.04 0-.306-.076-.306-.076l-1.07.44s.096.152.057.17c-.037.02-.458-.132-.59-.286zm-.383-1.184s-.038-.04-.057-.134c-.02-.096.04-.325.057-.383.02-.037.363-.21.44-.23.076-.018.153-.036.192.02.037.058.076.134.094.23.02.095-.268.21-.42.267-.153.076-.307.23-.307.23zm.058-4.148l-.133-.135.593-.132-.058.153-.4.116zm-.038-.574l-.115-.135.726.213-.076.113-.535-.19zm-.325-.498l1.147.363-.076.115-.955-.324-.116-.154zm1.11-1.147l.23.326-.117.975L53 5.27l.056-1.243zm.362.442l.114.17-.057.383-.135.133.077-.687zm.21-1.494c-.057-.476.478-.974.937-.974.457-.02.572.02.88.228l.362.422-.04.057s-.783-.48-1.3-.27c-.515.212-.515.497-.42.765.095.27.574.613.574.613l-.116.06s-.822-.403-.88-.902zm-.21-.707c-.115-.116.153-.288.25-.116.092.153-.097.287-.25.115zm-.078.478c-.152-.02-.076-.21.02-.19.152.038.134.208-.02.19zm.707-.842c.038.115-.133.287-.25.076-.094-.172.193-.19.25-.076zm.402-.172c.056.172-.21.23-.23.02 0-.115.19-.194.23-.02zm.343-.04c.04-.075.268-.055.192.097-.076.155-.248.077-.192-.095zm.536.25c.02-.077.153-.325.153-.325s.384.23.632.593c.25.383.325 1.07.325 1.07h-.115s-.344-.803-.44-.957c-.21-.363-.402-.344-.402-.344s-.057.02-.095.06c-.018.036-.077-.02-.057-.097zm.823-.802l.402.325v.093l-.44.155.038-.573zm1.204-.23l-.344.402s-.096-.078-.173-.078c-.075 0-.21.06-.21.06l-.305-.44 1.032.056zm.23.287l-.02.573-.42-.173.02-.077.42-.324zm.763.44l.097.4s-.02.058-.058.02c-.04-.04-.077-.097-.077-.097s-.383.267-.517.554c-.075.135-.324.747-.324.747h-.095s.018-.536.286-.957c.287-.42.67-.688.687-.668zm-.363 1.682s.326-.46.44-.594c.116-.132.708-.115.728.305.018.422-.23.613-.574.498l-.593-.208zm-.764-.058c-.228.02-.668 0-.668 0s-.153-.42.285-.42c.44 0 .44.248.383.42zm-.688-.918s.382-.02.553-.02c.172 0 .172.098.135.21-.02.116-.076.173-.076.173l-.172-.02v-.114c0-.076-.172-.135-.172 0 0 .152-.02.115-.02.115l-.19.02s-.038-.077-.058-.173c-.038-.096-.095-.19 0-.19zm.287-.916c.248-.022.325.304.038.304-.287 0-.268-.304-.038-.304zm.018.4c.192 0 .44.057.44.363h-.86s.058-.383.42-.363zm-2.312 1.453c-.076-.152-.037-.517.44-.61.496-.097.84.686.84.686s-.286.132-.61.228c-.326.096-.613-.133-.67-.305zm2.332.152c.88.02 1.777.192 2.37.575.21.132 0 .343-.095.287 0 0-.765-.613-2.295-.594-1.166.02-1.796.42-2.16.61-.363.19-.44-.15-.324-.208.057-.02 1.052-.69 2.504-.67zm2.943-1.28c.46.42.173.956.06 1.11-.116.15-.67.514-.67.514l-.116-.077s.498-.38.613-.67c.113-.305-.19-.707-.63-.648-.44.056-.92.287-.92.287l-.038-.06s.173-.21.287-.323c.17-.192.974-.536 1.413-.136zM58.79 1.85c.02.113-.17.19-.21.037-.02-.133.21-.153.21-.037zm.498-.096c0 .133-.21.172-.23 0 0-.115.21-.135.23 0zm.287-.04c.076-.056.267.02.133.153-.115.115-.23-.057-.133-.152zm.42.288c.076-.057.267.076.172.172-.114.115-.268-.096-.172-.172zm.46.555c0 .152-.25.17-.25 0 0-.096.25-.155.25 0zm.075 1.74l-.02.668-.115-.115-.018-.42.153-.133zm.248-.442l.096 1.454-.134.19-.095-1.45.133-.195zm1.148 1.895l-.153.15-.804-.095-.096-.114 1.052.06zm-.803-.365l.554-.21-.173.23-.42.095.04-.115zm0-.21l.82-.478-.132.268-.687.306v-.096zm.4.936l-.343.02-.076-.134h.573l-.153.115zm-9.576 4.493c-.056-.056-.114-.19-.152-.285-.058-.095-.535-.383-.535-.46 0-.094-.04-.48.076-.516.038 0 .077.076.133.19.057.116.132 0 .19-.095.06-.115.06-.17.115-.17.058 0 .058.018.116.055.077.057.134.135.134.135s.096.44.096.478c0 .038-.04.21-.04.305 0 .096.04.344.06.38.017.04-.136.04-.193-.017zm-.44-1.738c-.038.076-.056.21-.114.305-.057.096-.133 0-.114-.076.017-.077.094-.307.113-.364.02-.056.115-.056.115-.037.058.018.037.076 0 .172zm-.725-1.07c-.057-.21-.115-.574-.04-.574.23 0 .29.21.365.364.096.133.286.496.382.592.095.095.17.228.15.248-.017.02-.132 0-.265-.02-.134-.017-.21-.094-.287-.172-.078-.093-.23-.248-.306-.437zm.21 1.566c-.058-.018-.134-.23-.173-.4-.038-.173.02-.286.057-.364 0 0 .116.19.133.27.02.056.04.247.06.343.037.093-.02.17-.077.15zm-.173.42l-.153-.055.02-.327.23.153-.098.23zm-.325-.458c-.02.04-.115 0-.115 0v-.076c0-.037-.153-.592-.19-.783-.04-.192-.057-.268-.057-.307 0 0 .075-.017.17.04.077.036.287.19.344.208.078.04-.152.88-.152.918zm-.764.02c-.02.076-.134.037-.153 0-.02-.04 0-.344-.057-.573-.057-.23-.114-.442-.152-.5-.058-.075-.078-.21-.078-.21s.306.268.44.288c.134.04.25.152.25.173 0 .02-.23.746-.25.822zm-.517.19c-.056.04-.152-.036-.248-.19-.095-.153-.324-.477-.38-.594-.06-.113-.193-.38-.193-.42 0 0 .095.04.382.21.287.173.363.364.42.46.04.096.078.516.02.535zM48.01 8.157c-.287-.037-.46-.096-.612-.324-.153-.21.115-.65.192-.764.077-.134-.192-.422-.192-.422l.097-.248s.382-.02.554.42c.074.174.017.364-.022.535-.037.174.135.403.21.536.097.153.307.23.27.25-.04.016-.212.055-.498.016zm.153 1.13c-.02.112-.402.915-.44.937-.038.017 0-.538-.038-.63-.038-.097-.21-.443-.095-.67.114-.212.17-.288.19-.402.02-.116.04-.192.04-.192l.036-.037h.116s.056.345.095.458c.038.117.115.422.096.537zm-.668-.727c-.04.133-.058.342-.04.495.04.134.02.496-.23.67-.248.17-.515.343-.553.4-.057.076-.21.344-.248.385-.057.037-.134-.04-.134-.116 0-.097-.02-.287.02-.365.038-.077.477-.88.495-.956.02-.076.212-.326.287-.38.077-.06.134-.173.153-.25.02-.077.153-.192.192-.212.114.02.095.192.058.327zm-1.034 2.75c0 .057-.018.155-.093.135-.077-.02-.038-.078-.038-.135 0-.056.075-.076.075-.076.076-.02.056.02.056.076zm-.303-.228c-.02.06-.096.228-.115.285-.04.06-.06.098-.116.078-.058-.04-.02-.115 0-.154.02-.036.096-.228.116-.286.02-.057.056-.133.132-.113.057.038 0 .133-.017.192zm-1.34 1.088c-.17.058-.764.135-.764.135l.42-.383-.04-.113s-.684.36-.934.438c-.25.076-.27-.02-.193-.098.078-.074.86-.648.86-.648l-.038-.115s-.708.21-.9.345c-.19.133-.706.4-.782.477-.076.058.23-.4.478-.612.248-.21.993-.612.993-.612l-.078-.135s-.59.212-.898.423c-.307.21-.84.536-.955.688-.116.153.247-.573.516-.782.287-.192 1.127-.69 1.127-.69l-.115-.115s-.917.422-1.09.537c-.172.133-.592.363-.554.285.02-.076.46-.535.632-.63.172-.096.686-.44.686-.44l-.037-.113s-.593.228-.936.457c-.346.23-.862.497-1.244.15-.382-.343 0-.78 0-.78s-.097.726.306.763c.402.04.842-.402.898-.46.057-.055.784-.725.88-.8.095-.077.667-.306.86.305.19.612.745 1.567 1.127 1.74.4.19.88.458.88.458s-.938.267-1.11.324zm-3.25-.248c-.248.096-.363.04-.516 0-.15-.037-.227-.02-.227-.02s.555-.363.61-.515c.06-.153.308-.057.364.058.057.094.02.383-.23.477zm-.19.517c-.287-.06-.38-.307-.38-.364 0-.078.074-.04.15.018.057.056.363.19.46.23.095.037.057.154-.23.115zm-.574-.747l-.056.018c-.04-.073-.287-.86.115-.86.4 0 .61.29.572.384-.037.116-.133.192-.21.268-.077.058-.096-.037-.096-.096v-.152c0-.04-.152-.04-.152.037v.384h-.038s-.04-.037-.06-.114c-.016-.078-.074-.02-.074.018v.115zm-.4-1.183c-.192 0-.154-.06-.23-.078-.077-.02-.42-.248-.42-.248l.115-.192h.476c.02 0 .116-.152.06-.152-.06 0-.423-.02-.423-.02l.02-.135s.42-.074.46-.074c.04.02.115-.192.04-.173-.08 0-.347.06-.365.077-.013.013-.09.037-.12.058l-.014.02c-.003-.006.003-.014.014-.02l.063-.096s.287-.078.363-.134c.076-.076.307-.305.383-.23.076.077.173.306.076.536-.116.23-.325.862-.497.862zm-.06 2.043c-.132.115-.286.248-.4.287-.114.04-.306-.114-.21-.305.115-.19.307-.287.516-.326.21-.04.227-.077.227-.077l.078-.057c-.02.074-.076.363-.21.477zm-1.03-.764c.058-.136.38-.325.38-.288.02.037.136.19.308.267.154.058.44.115.44.115s-.496.265-.668.343c-.153.057-.517-.306-.46-.44zm.822-.536c0 .056-.02.248-.058.285-.037.038-.096.038-.096.038s.02-.228.02-.305c0-.078-.115-.04-.115.018 0 .06-.113.097-.152.02-.02-.076 0-.324.307-.306.285.02.46.326.476.422.04.095.04.228 0 .248-.037.02-.267.02-.267.02v-.364c0-.04-.115-.135-.115-.076zm-1.244-.096c-.188 0-.304.076-.456.076-.154 0-.21-.04-.19-.093.017-.058.323-.382.323-.382h.21l-.134.246.23-.076s.038-.153.038-.19c.02-.02.153-.058.153 0v.172h.172s-.037-.268-.037-.326c0-.057.152-.135.152-.074 0 .056.038.265.038.265l.173-.095-.113-.307.096-.133s.114 0 .114-.017c.02.017.096.037.172.113.076.076.018.096.076.152.055.06.075.154.075.154s.077.077.06.153c-.04.076-.307.172-.442.228-.113.06-.133.078-.228.096-.096.038-.286.038-.48.038zm-.552-.478c-.077.04-.382.134-.496.115-.134-.02-.078-.135-.058-.21.02-.097.248-.345.304-.384.06-.036.02-.188 0-.265-.037-.076.02-.154.08-.193h.342s-.02.117-.02.21c0 .097.153.173.153.173s-.037.04-.037.098c0 .054.057.113.057.113s-.038.076-.077.113c-.037.038-.02.116-.02.116l-.228.114zm-.84-.133c-.038 0 0-.174 0-.174s-.134.04-.212 0c-.076-.018.04-.076.04-.076s-.403-.057-.403-.113c0-.06.058-.06.058-.06l-.134-.112c.04 0 .766.056.842.056.096 0 .23.076.172.155-.057.074-.325.324-.363.324zm.61-2.256c.02-.247.19-.65.172-.65 0 .116.154.63.192.823.038.19 0 .344-.095.344-.097 0-.29-.268-.27-.516zm.69.517c.037-.06.132-.286.286-.23.133.058.266.116.23.325-.04.192-.06.364-.134.307-.078-.04-.23-.116-.21-.155-.04.02-.04.095-.04.095s.133.096.172.135c.02.037-.057.152-.133.133-.08-.02-.155-.133-.23-.172-.077-.02-.173.057-.173.057s.096.04.115.076c.02.038-.19.192-.305.116-.116-.078-.134-.346.018-.46.154-.095.383-.17.402-.23zm.382.744c-.135-.054.055-.228.153-.19.114.038-.02.25-.153.19zm.19.214c-.057.113-.21 0-.172-.08.04-.073.23-.016.172.08zm.04.476c.018.096-.25.21-.25 0s.228-.133.25 0zm-.287-.19c-.117-.02-.136-.173 0-.19.15 0 .112.208 0 .19zm-.06.227c.096-.017.096.21-.037.192-.135-.02-.115-.173.037-.193zm-.285-.19c.076-.075.267 0 .152.136-.115.132-.228-.06-.152-.135zm.037-.402c-.095.057-.152-.074-.037-.152.057-.037.133.078.037.152zm.154-.093c.036-.078.265.02.132.113-.115.096-.172-.02-.133-.113zm-.02.324c-.076.113-.21.02-.153-.096.038-.078.248-.02.153.096zm-.325.076c-.095 0-.134-.21 0-.228.114 0 .095.228 0 .228zm.135.38c.114-.017.21.288-.02.27-.21 0-.097-.23.02-.27zm.687-.495c.114-.076.21.172.096.21-.096.038-.193-.152-.096-.21zm.19-.266c0 .17-.228.115-.21-.038 0-.058.192-.174.21.04zm0-.288c.096-.113.307.057.172.174-.116.115-.25-.098-.173-.174zm.154.326c.134.037.058.305-.096.248-.15-.056.02-.267.097-.248zm-.018-1.28c.23-.058.44 0 .535.056.113.056.305.21.363.287.057.097.114.173-.076.288-.19.115-.44.324-.498.344-.056.037-.076-.02-.076-.02s.19-.21.23-.285l.057-.115-.154-.076s-.152.324-.192.38c-.036.06-.092.06-.075-.017.02-.08.172-.44.172-.44l-.19.017s-.02.19-.038.23c-.02.02-.04.172-.04.172h-.077l.02-.366-.114.098-.022.304s-.055.06-.095.04c-.038-.02-.038-.364-.038-.46 0-.113.057-.36.307-.44zm-.153-.632c-.022-.076.037-.44.074-.592.06-.152-.075-.306-.247-.306-.173 0-.384.02-.67-.076-.247-.084-.237-.14-.243-.202-.016-.005-.024-.01-.024-.01l.02-.02.004.03c.042.02.14.06.28.086.212.06.403.077.595.06.188-.04.21.017.303.093.096.077.096.44.04.65-.06.19.153.554.153.554l-.115.056s-.133-.248-.17-.324zm2.35 1.033c-.173-.022-.632.076-.708.132-.076.057-.228.135-.228.135l-.21-.096s.095-.057.055-.133c-.038-.077-.172-.268-.172-.268s.268.056.42-.095c.154-.174.27-.517.326-.537.056-.02 1.052-.344 1.433-.248.498.115.67.555.67.84 0 .307-.172.574-.478.537-.308-.04-.938-.25-1.11-.268zm.592.763s-.726.574-.898.727c-.17.152-.613-.096-.42-.42.172-.326.344-.594.708-.48.362.116.61.173.61.173zm-.056-.23c-.134-.057-.726-.23-.937-.133-.345.152-.556.535-.556.535l-.018-.42s.25-.268.458-.307c.21-.037.44-.113.726 0 .153.06.382.268.382.268l-.056.057zm-2.6-2.905c.114 0 .573.153.67.536.094.382.17.63.17.63l.153-.037s-.038-.115-.077-.27c-.02-.152-.076-.286-.076-.38-.02-.096-.153-.287-.153-.287s.248.056.325.287c.056.152.114.516.114.553 0 .04.094.04.228-.077.135-.113.42-.152.957-.21.533-.057.935.02 1.26.21.362.21.497 1.05.478 1.206-.02.15-.305.418-.23.21.076-.21-.02-.594-.095-.823-.077-.23-.345-.498-.746-.535-.4-.06-1.338.096-1.49.152-.152.06-.42.403-.803.516-.383.115-.633-.38-.574-.687.06-.307.02-.516-.096-.688-.115-.174-.63-.154-.744-.154 0 0 .496-.19.726-.152zm4.663 3.366c.076.037-.096.248-.136.228-.037-.02.078-.25.135-.228zm.19-.307c.116-.02.21-.096.307-.154.096-.057.496-.153.687-.21.192-.056.516-.286.516-.286s.02.058 0 .19c-.04.116-.344.536-.687.65-.288.095-.9-.018-1.032-.096-.173-.093.096-.074.21-.093zm.076-.67s0-.018.02-.018c.06-.022.21-.096.344-.096.172 0 .287-.174.44-.23.154-.057.248-.153.382-.134.135.038.172.057.172.057s-.268.402-.46.457c-.19.06-.286.078-.515.078-.23 0-.384-.115-.384-.115zm.842-.84c.037-.02.305-.135.383-.172.076-.058.038-.172.097-.23l.343.058-.04.192c-.018.21-.4.305-.572.265-.173-.037-.25-.093-.21-.113zm-.02 2.79c.057-.077.096-.17.173-.153.058.037.058.135 0 .19-.056.058-.208.23-.208.308-.02.076-.174.152-.155.02.02-.116.155-.288.192-.364zm-.4-.134c.02-.056.133-.076.19-.076.076 0 .076.133-.037.172-.115.058-.077.15-.132.21-.06.057-.135.018-.135-.06 0-.075.095-.19.115-.247zm-.478-.267c-.076.037-.172-.06-.096-.172.096-.115.152-.21.248-.268.096-.056.306-.02.287-.037.018.075-.077.113-.135.17-.057.058-.25.288-.305.306zm.076.344c.02-.06.19-.325.23-.403.038-.076.133-.113.133-.113.058.037.038.096.018.133-.038.04-.19.383-.267.46-.075.075-.134-.02-.114-.077zm1.07.17s.076-.495.172-.456c.096.038-.172.457-.172.457zm-.056-.743c-.174.077-.364.116-.44.116-.078 0 .153-.27.23-.364.075-.096.21-.23.305-.31.096-.074.23-.265.305-.34.078-.08.115-.136.19-.173.08-.04.136 0 .155-.02 0 .096-.115.38-.23.534-.133.175-.343.48-.515.557zm1.127-1.93c.02.17.095.227.02.362-.077.134-.345.267-.345.267s.058-.133.02-.403c-.06-.265-.25-.648.018-.935.27-.288.593-.402.593-.384-.038.058-.172.44-.228.592-.06.154-.098.326-.078.498zm-.918-1.894l.19-.152v.44l-.19-.287zm-.306.9c-.152-.058-.096-.326 0-.306.096.017.152-.04.535-.25.4-.21.495-.516.515-.668.02-.155-.23-.593-.268-.65-.037-.058-.305-.04-.228.114.055.152.037.304 0 .44-.04.114-.48.478-.652.59-.19.136-.44 0-.498-.132-.056-.135.078-.402.135-.478.057-.076.152-.135.287-.153.133-.018.172-.23.172-.286 0-.056-.326-.133-.44-.133-.115 0-.306.04-.306.04v.094h.324c.06 0 .25.096.192.096-.057 0-.516.076-.688.133-.172.04-.383.308-.383.308s.058-.344.076-.403c.02-.057.076-.228.134-.285.057-.078.076-.192-.02-.135-.095.057-.478.192-.478.192s.268-.556.363-.69c.076-.134.286-.286.286-.286s0-.037-.02-.076c0-.04.173-.192.212-.326.038-.153-.096-.44-.115-.477 0 0 .23.02.306.21.095.134.075.23.075.23l.096-.018s0-.078.02-.135c.02-.058.02-.267 0-.344-.02-.095-.19-.306-.19-.365 0-.074.17-.037.304.04.135.075.19.21.21.325.02.114-.056.364-.056.364l.153-.02s.02-.19.038-.267c.02-.06.04-.133.076-.307.04-.172-.113-.344-.113-.402 0-.057.153.02.286.115.115.096.058.48.058.595-.02.113-.152.304-.152.304l.076.02s.287-.402.344-.497c.057-.098-.02-.366 0-.422.02-.056.076-.152.154-.056.074.096.074.535.057.63 0 .097-.287.423-.287.423h.133s.038-.098.096-.174c.057-.096.152-.172.287-.248.15-.076.4-.096.477-.133.076-.058.076-.174.152-.174.076-.017.057.116 0 .307-.037.19-.172.172-.305.268-.134.095-.46.304-.46.304l.154.135s.307-.268.46-.363c.152-.097.344-.136.457-.173.116-.057.193-.305.23-.383.038-.076.153.06.172.135.02.075.02.15 0 .304-.02.152-.307.382-.42.458-.116.077-.593.327-.593.327l.076.17s.21-.19.593-.287c.382-.095.65.344.802.63.153.308.498.554.535.554.04 0 .115.096.02.115-.078.04-.172.02-.325-.076-.173-.115-.69-.516-.803-.535-.134-.017-.554-.017-.554-.017l.076.172s.115-.04.307-.02c.19.038.382.25.515.44.135.19.42.48.46.496.057.038.153.077.153.116 0 .04-.17.04-.305-.02-.135-.058-.46-.382-.69-.515-.227-.153-.457-.018-.514 0l-.114.038s-.02-.056-.06-.21c-.036-.15-.418-.63-.533-.708-.133-.076-.325-.056-.21.022.115.094.573.764.573 1.05 0 .286-.44.9-.65 1.09-.21.19-.63.268-.782.21zm-.727-.402c-.058.097-.21.097-.478-.095-.27-.17-.153-.382-.116-.42.04-.058.21.018.267.038.08.02.156.04.27.115.095.076.114.267.057.363zm-.23-3.325c.06.096-.037.21-.17.248-.135.04-.364-.115-.307-.38.057-.27.516-.04.592 0 0 0-.172.036-.114.132zm-.86-.172c.23-.422.383-.402.594-.402.21-.02.402.08.497.116v.172s-.478-.115-.67-.037c-.19.075-.248.362-.17.458.076.096.458.326.458.326s-.938-.19-.707-.63zm1.28-1.014c.115-.077.307.056.346.154.056.093.113.267-.06.36-.15.097-.304.077-.4-.075-.095-.153-.02-.364.115-.44zm.88-.172c.057-.096.153-.02.135-.02l.153-.172s-.135-.228-.038-.267c.094-.04.172.133.172.133l.285-.078s-.02-.228.134-.228c.152.02.017.228.017.228l.192.06s.095-.136.19-.02c.096.115-.095.19-.095.19s.038.096.058.134c.017.057.017.094.017.114.02.02.25-.02.25.095s-.23.02-.267.037c-.058.02-.25.134-.25.134s.058-.075.076-.17c.02-.096-.02-.325-.173-.364-.152-.04-.267.076-.438.21-.173.136-.366.536-.366.536s-.076-.04-.076-.172c0-.134.096-.21.096-.21s-.115-.116-.076-.172zm.766.498c-.058.095-.173.17-.173.17s-.038-.153-.114-.153c-.076 0-.172.153-.172.153s-.076-.038.057-.266c.135-.23.307-.402.403-.383.133.057.057.4 0 .48zm1.012.324c0 .056-.172.172-.268.152-.095-.02 0-.19-.02-.267-.017-.077-.17-.04-.21.076-.037.116-.19.268-.266.288-.077.017-.21.096-.21.076.02-.02-.018-.228-.018-.228s0-.155.018-.155c.04-.016.21-.094.287-.17.077-.094.133-.19.268-.19.133 0 .42.344.42.42zm.517 1.146c.096-.076.534-.115.764-.172.23-.058.46.077.63.155.173.073.498.112.536.112.057.018 0 .057-.19.172-.19.096-.364.096-.556.096-.172 0-.42-.096-.687-.172-.27-.096-.593-.02-.614-.096-.018-.057.04-.04.116-.096zm.018-.382c.02-.077 0-.21.02-.286.037-.095.44-.076.61-.056.192 0 .23.113.364.17.134.076.116.152-.018.19-.154.04-.287.04-.46.06-.172.017-.4.152-.534.132-.134-.017 0-.152.018-.21zm2.065 1.72c.172.02 0 .155-.172.172-.23.04-.535-.04-.727-.133-.19-.095-.515-.345-.65-.535-.132-.174-.323-.307-.305-.346.038-.093.766.21 1.014.27.268.076.268.21.42.363.153.172.25.19.42.21zM50.42 6.57c.038.115.038.44-.02.324-.058-.113-.192-.267-.306-.343-.115-.075-.402-.17-.536-.267-.134-.096-.173-.533-.116-.574.078-.058.326.21.478.268.135.057.174.077.213.133.037.058.247.345.286.46zm-1.207.65c-.018-.152-.113-.17-.21-.343-.114-.154-.286-.422-.286-.422.038-.02.496.25.63.383s.077.172.116.248c.038.076.23.115.268.23.038.114-.02.707-.02.707s-.133-.134-.23-.248c-.095-.134-.247-.402-.267-.554zm-1.298-.937c-.116-.076-.46-.172-.46-.172v-.19s.192-.115.306-.133c.098-.02.213.037.383.133.174.115.326.46.383.687.058.23.19.27.288.364.095.08.247.327.17.327-.075 0-.247-.057-.4-.135-.154-.076-.172-.152-.21-.305-.057-.152-.364-.498-.46-.574zm.46.957s.19.153.342.23c.172.075.268.133.268.133s0 .153.018.286c.02.133.192.477.212.555.018.076-.02.23-.02.285 0 .057-.038-.056-.134-.21-.114-.153-.246-.305-.42-.477-.17-.174-.266-.46-.286-.535-.02-.096 0-.192.02-.268zm1.948.555c-.153-.154-.362-.498-.42-.594-.06-.095-.326-.306-.363-.42 0 0 .382.058.535.173.172.115.305.42.4.707.096.287 0 .287-.152.135zm1.414.974c0-.077.115-.194.135-.194.057.02.037.04 0 .248-.04.213-.06.27-.06.27s-.112.02-.132-.04c-.02-.056.057-.208.057-.285zm.076-.975c.078.017.116.056.116.056s.074.02.074.078c0 .056-.037.095-.037.095s-.02.21-.095.21c-.077 0-.097-.077-.097-.153 0-.057.038-.285.038-.285zM37.4 9.457c-.132.02-.21 0-.21 0l.135-.135s-.154-.02-.287-.02c-.133 0-.153-.036-.153-.036l.172-.135s-.076-.017-.19-.036l-.115-.02.056-.096s-.153-.02-.153-.076c0-.056.04-.056.04-.056s-.173-.098-.25-.25c-.095-.15-.058-.23-.058-.23s.21.155.307.27c.096.112.19.188.267.188.078 0 .21 0 .27.04.036.02.075.077.075.077s.172.077.287.134c.096.076.23.23.23.23s-.287.133-.42.153zm24.41.61c.058 0 .173-.018.364-.075.19-.057.248-.267.266-.344 0 0 .06-.02.098.268.018.268-.21.402-.364.478-.153.075-.345.19-.4.075-.04-.058-.02-.382.037-.402zm.27-2.292l.018 1.012-.19.037s-.058-1.03-.08-1.2l.25.15zm.706 1.338c.115.153.21.4.21.4l-.095.02s-.075-.287-.19-.267c-.116 0-.518.113-.612.19-.097.058-.04.192-.02.23 0 .02.038.134.057.154l-.094.037s-.172-.344-.172-.44c0-.115.115-.267.248-.343.135-.077.555-.135.67.02zm-.383-.44c.02-.056.02-.726.02-.784 0 0 .17.018.267.038.076 0 .19.095.19.132 0 .04-.21.67-.21.67l-.287.018s.002 0 .02-.074zm.67-.613s.21-.017.266 0c.057 0 .116.06.096.096l-.174.365-.36.173.17-.633zm.745.71l.19.247-.172.038s-.076-.096-.095-.133c0-.04-.056-.04-.132 0-.076.037-.25.115-.324.152-.077.04-.077.135-.077.135l.077.093-.115.115s-.29-.344-.097-.516c.19-.172.383-.21.458-.228.098-.02.23.02.288.095zm-.114-.63l.228-.04-.133.287h-.23l.134-.248zm.61 0c.308-.117.42.092.46.208.02.02.02.04.02.04l-.06.036s-.114-.114-.21-.096c-.095 0-.152.076-.324.193-.153.115-.02.382-.02.382l-.095.04s-.116-.194-.133-.346c-.02-.15.02-.325.363-.457zm.02-1.035v-.42s.42.592.44.63c.02.038.306-.057.344-.133.04-.077.343-.364.343-.364l.193.135s0 .172-.02.248c-.018.077-.037.308-.037.308l.115.076s.267-.154.326-.19l.248-.173.172.038.095.726.173.04.574-.346.23.173-.134.537.115.093.573-.152.192.096-.172.517.153.134.61-.172.212.076c-.115.096-.307.248-.403.344-.095.115-.152.192-.152.192h-.076l-.115.19-.193-.112.192-.25-.117-.04-.152.155-.134-.04s.135-.17.155-.228c.038-.06-.095 0-.134.02-.057.016-.19.132-.19.132l-.078-.057.25-.21-.076-.097-.308.248s-.458-.324-.61-.44c-.154-.112-.555-.306-.687-.362-.154-.057-.154-.23-.172-.324-.02-.096-.25-.096-.25-.096v.248c0 .096-.134.172-.23.193-.094.018-.018-.097-.018-.097s.21-.344-.135-.4c-.42-.08-.4.362-.4.362s-.172-.058-.135-.23c.076-.268.44-.344.44-.344l-.057-.152s-.23.076-.268.115c-.037.036-.02-.136-.02-.136l-.152.04s0 .095-.02.132c-.02.04-.095.096-.095.096l.038-.21-.134-.077s-.04.096-.06.154c-.017.056-.036.15-.036.15l.02-.362-.097-.135-.132.364v-.612zm.784-1.738c-.06-.115.02-.613.02-.613l-.135-.037s.02.076-.057.248c-.076.172-.172.248-.172.248s0-.248-.02-.344c-.02-.097-.095-.23-.095-.23l-.193.077s.058.515.04.63c-.02.114-.06.305-.154.325-.115.02-.172.02-.172-.04 0-.056.096-.095.135-.17.038-.077.02-.306.02-.306s-.116.23-.192.248c-.077.02-.096-.037-.096-.095s.02-.115.02-.193c0-.094-.115-.19-.154-.135-.037.06-.114.096-.19.135-.058.02-.172-.04-.306-.02-.135.02-.248.04-.383-.02-.133-.054-.21-.17-.23-.304-.018-.132.077-.19.154-.19.076 0 .4-.02.478-.058.074-.056.172-.228.192-.306 0 0 .113-.04.267.018.094 0 .286.06.458.076.172.02.325.02.4 0 .078-.037.154-.152.193-.228.037-.076.113.037.096.076-.02.04-.02.115.076.076.115-.037.095-.115.134-.133.038-.04.094.037.094.037s.06-.037.096-.076c.04-.056.86-.04.994-.04.135 0 .19.136.287.27.095.114.248.19.402.19.153 0 .287-.017.44.018.152.04.248.346.23.52-.02.17-.287.628-.287.628l.114.248s.172-.34.267-.457c.095-.115.21.153.17.248-.038.097-.306.632-.306.632l.078.285s.286-.513.325-.572c.056-.057.19.076.152.19-.02.117-.364.937-.364.937l.076.307s.306-.613.346-.747c.056-.133.228-.057.19.076-.038.134-.593 1.223-.632 1.3-.037.056-.132 0-.152-.04-.02-.037-.06-.437-.06-.437l-.38-.135-.516.23-.02-.46.19-.037-.017-.19s-.42 0-.536-.02c-.113 0-.38-.04-.38-.04l-.02-.132s.42-.04.554-.096c.133-.057.554-.307.554-.307l-.018-.21s-.42.29-.614.345c-.19.057-.705-.02-.705-.02v-.17l.63-.097c.247-.037.61-.383.61-.383l.174-.515s-.423.44-.67.63c-.25.192-.766.116-.802.116-.02 0-.136-.134.018-.152.153-.02.688-.115.88-.25.19-.113.4-.554.4-.554l-.172-.076s-.057.134-.21.363c-.154.25-.457.268-.822.29-.36.018-.685-.29-.724-.383zm-1.434.192c-.115 0-.306-.04-.44.112-.133.133-.19.037-.23-.02-.037-.056-.152-.19-.19-.285-.038-.096.038-.154.02-.154.037-.018.153.154.19.21.04.057.267-.075.344-.095.078-.037.154-.076.267-.02.096.04.268.116.268.192s-.114.06-.23.06zm-.115.534c-.04.113-.04.19-.114.34-.078.156-.25.173-.403.173-.154 0-.42.02-.515.078-.098.057-.155.096-.135-.02.037-.114.096-.17.153-.23.058-.056.287-.132.458-.21.172-.077.172-.23.23-.325l.42-.037s-.056.115-.095.23zm1.063-2.334c-.013-.006-.025-.012-.032-.018.008-.008.02.002.033.018.08.035.27.074.35.058.096-.02.402-.267.498-.306.116-.037.403-.077.575 0 .17.076.246.095.267.115.038.02.095.057.153.096.057.04.096.095.096.095h-.477c-.116 0-.747.06-.84.096-.096.018-.383.037-.46 0-.056-.03-.12-.115-.16-.154zm1.727-.84c-.038 0-.076-.02-.113-.096-.04-.096-.118-.152-.098-.21 0-.057.097-.173.114-.23 0-.038-.017-.115.02-.132.017-.022.095-.022.133-.04.04.04.096.212.096.25 0 .055.075.514-.02.497-.095-.023-.114-.04-.133-.04zm.383 1.05c.037-.056.152-.267.21-.343.057-.076.114-.496.114-.594 0-.096.097-.228.115-.267.02-.057.133-.266.154-.266.038 0 .077.133.038.19-.02.058-.038.095-.038.115 0 .02.23.707.25.802.018.077.018.287-.02.344 0 0-.116.25-.288.327-.114.096-.248.02-.42-.076-.154-.095-.154-.173-.115-.23zM69.13 9.8s-.018-.095-.17-.095c-.114.02-.25.02-.25.287-.018.268.345.305.345.305s0 .19-.383.097c-.152-.04-.287-.17-.287-.498 0-.324.383-.42.594-.4.21.018.19.285.15.305zm.154-.515c.058 0 .076-.096.115-.135.038-.037.306-.228.63-.343.326-.114.69.17.842.23.132.076.305 1.012.363 1.28.076.267.553 1.28.61 1.376.058.096.345.305.345.305s.037.19.096.307c.056.115.44.726.496.88.058.172 0 .19-.094.133-.078-.056-.44-.554-.46-.592-.018-.058-.134-.078-.095.018.018.096.114.324.153.4.038.077.172.403.172.403l-.153-.02c-.172 0-.46-.248-.67-.46-.21-.208-.172-.34-.115-.38.057-.04.288-.152.288-.152l-.038-.115s-.344.096-.574.058c-.23-.04-.115-.23-.057-.25.073-.02.132-.04.19-.04.057 0 0-.112-.038-.15-.04-.04-.135-.04-.268-.04s-.152-.113-.057-.152c.077-.037.172-.114.172-.114l-.06-.172s-.19-.058-.305-.078c-.114-.017-.114-.115-.058-.152.058-.04.23-.135.23-.135l-.038-.267s-.116 0-.25.02c-.116 0-.152-.134-.095-.173l.268-.172-.058-.17s-.23 0-.345.016c-.115.02-.133-.077-.095-.132.037-.058.343-.29.343-.29l-.017-.132s-.288.133-.42.172c-.115.057-.058-.152 0-.21.057-.077.42-.247.42-.247l-.02-.134s-.515.075-.707.075c-.19-.017-.287-.304-.287-.304s-.227.152-.362.19c-.115.02-.096-.018-.115-.075 0 0 .096-.114.114-.075zm2.293-.898s.06.017.097.093c.037.08.037.04.134.116.095.058.21.46.267.593.04.132.076.343.04.402-.04.037-.232.113-.366.113-.134 0-.057-.133-.057-.248 0-.135-.077-.67-.116-.746-.036-.075-.018-.265 0-.323zm.71 1.642c.382.058.686.288.744.382.058.098-.074.057-.074.057l-.155-.058s-.094.135-.15.19c-.06.058-.06.117-.06.117l-.324.018-.228.19.152-.325-.152-.076-.155.268-.056-.115.037-.307v-.018h-.305s.343-.382.726-.326zm.323-.688c.04-.096.02-.268.04-.42.02-.135.038-.248.15-.287.23-.096.345.287.345.287s.212-.076.307-.076c.114 0 .134.248.134.248s.23-.057.325 0c.096.056.02.267.077.248.057 0 .152-.04.306.02.153.036-.02.267.096.267.113 0 .208.038.228.134.02.095-.115.17-.02.21.096.038.038.19-.113.25-.154.036-.326.264-.326.264l-.19-.056s.093-.155.15-.192c.04-.04.23-.152.23-.152l-.096-.21s-.115.15-.19.21c-.077.076-.325.23-.325.23l-.097-.058.326-.325c.056-.076.15-.193.15-.193l-.172-.094s-.057.133-.113.192c-.06.056-.288.285-.288.285l-.076-.018s.077-.248.154-.326c.076-.075.134-.343.134-.343l-.095-.04s-.077.154-.155.27c-.095.114-.324.345-.324.345l-.096-.06s.096-.247.153-.323c.06-.097.193-.327.193-.327l-.116-.037s-.133.21-.19.306c-.04.096-.19.248-.19.248l-.116-.02s.116-.208.153-.267c.04-.076.155-.307.155-.307l-.116-.056s-.02.096-.076.21c-.058.116-.248.42-.248.42l-.27-.058s.155-.285.192-.4zm2.18-.44s.343-.498.4-.65c.078-.152.27-.363.27-.363s-.096.438-.116.61c-.04.174-.19.478-.19.478s.65-.037.706-.037c.037 0-.324.134-.402.19-.077.06-.535.384-.65.384-.115 0-.21-.077-.323-.23-.135-.134-.307-.438-.326-.536-.02-.094-.02-.227-.02-.227l.65.382zm.84.612c.192-.018.554-.038.554-.038s-.42.172-.553.192c-.114.017-.38.248-.476.267-.097.018-.097-.306-.097-.306s.383-.097.574-.116zm-.936 1.816c.076-.096.784-.363.784-.363s-.076.248-.288.46c-.208.21-.687.59-.687.59l.363.21.057.23s-.343-.152-.497-.248c-.172-.097-.402-.134-.402-.134s.04-.135.096-.402c.058-.268.172-1.014.172-1.014l.17.822s.136-.076.232-.152zm1.607-.057c-.02.057-.212.325-.305.38-.116.058-.384.288-.384.288s.574.384.65.42c.076.04-.076.193-.133.156-.057-.038-.937-.44-.994-.46-.076-.02-.152-.058.057-.19.21-.116 1.11-.593 1.11-.593zm-2.18 1.262c-.114-.02-.573-.174-.573-.174s.248.232.325.366c.076.133.21.38.21.38l-.056.038s-.345-.38-.498-.476c-.153-.096-.555-.4-.555-.4s.287-.155.44-.23c.153-.077.44-.27.44-.27l.058.02-.19.192s.458.325.573.42c.115.096.153.153.153.153s-.21 0-.326-.018zm-1.606-.478s-.095-.364-.113-.575c-.02-.21-.095-.46-.095-.46s.19.136.23.193c.038.058.114.152.114.152s.267-.285.323-.44c.058-.152.268-.61.268-.61l.04-.04.037.078v.477c0 .23-.057.402-.057.402s.306-.02.44-.02c.115 0 .267.04.267.04s-.306.363-.63.535c-.325.17-.823.267-.823.267zm-2.084.324c-.037-.056-.017-.095-.056-.19-.038-.096.095-.153.134-.057 0 0 .057.115.094.21.02.114-.133.096-.172.038zm-.342-.343c-.078.04-.17-.076-.078-.115.116-.057.155-.21.116-.305-.038-.115-.23-.422-.23-.422s-.17.06-.19 0l-.038-.076s.114-.077.23-.116c.095-.037.15 0 .19.02.038.02.172.326.248.497.058.173.058.308 0 .345-.057.037-.17.133-.248.172zm-.154.21c.02.038-.056.097-.096.114-.037.02-.132.06-.21-.075-.076-.135-.114-.305-.018-.42.096-.115.19-.21.267-.287.075-.076.19.076.172.06 0 .055-.06.094-.098.13-.035.04-.114.154-.094.25.02.095.06.19.076.23zm-.287-1.587c0-.04-.287-.592-.305-.63-.02-.038-.058-.018-.076-.018-.04 0-.248.076-.248.076s-.058.02-.077-.02c-.02-.04.02-.076.02-.076s.267-.096.324-.115c.058-.018.21-.057.308.096.094.152.19.476.23.574.036.095-.02.248-.097.267-.076.018-.152.057-.152.057l-.06-.075s.116-.057.134-.057c.02 0 0-.058 0-.078zm-.477.69c-.076-.288-.17-.48-.095-.575.056-.095.135-.154.21-.19.075-.038.21-.038.21-.038s.037.037.037.056c0 .018-.018.04-.018.04s-.133.056-.154.056c-.018 0-.018.038-.018.058 0 .017.133.457.153.496.02.037.076.096.152.113.076.02.135.02.135.02s.076.095.02.115c-.058.02-.288.096-.383.135-.097.037-.173 0-.25-.287zm-2.275-1.377c-.057.115-.21.363-.21.363l-.153-.096s.172-.363.23-.476c.037-.116.17-.403.17-.403l.173.136s-.133.344-.21.477zm.707.44c.02-.058.133-.345.133-.345l.115.04s-.076.265-.095.34c-.02.08-.133.327-.133.327l-.153-.037s.095-.25.132-.326zm-.305-.04l-.133.27-.23-.116s.21-.304.248-.402c.04-.096.192-.42.172-.42l.133.135s-.172.496-.19.533zM64.6 8.635l.078-.076.21.114s.306-.346.364-.442c.057-.093.23-.076.21.096 0 .172-.077.307-.133.44-.06.134-.308.173-.48.078-.172-.116-.25-.21-.25-.21zm-.17.248c-.02-.06-.04-.135-.04-.135s.116-.018.21.174c.117.228.022.287-.324.496-.324.21-.305.174-.42.115-.115-.057-.21-.307-.21-.363 0 0 .134.096.172.133.077.04.248-.094.382-.153.135-.076.25-.21.23-.267zm-.937.496c-.037-.038-.076-.134-.076-.134s.115 0 .228.152c.096.135.04.366-.076.46-.114.095-.478.19-.727.19-.23 0-.23-.552-.192-.572.04-.02.077.153.155.192.038.074.133.113.477.017.346-.093.228-.267.21-.306zm5.295 2.43c-.077.092-.305.208-.364.247-.04.037-.152.076-.19.076-.038 0-.308-.076-.384-.115-.074-.038-.095-.116-.095-.116s.193-.037.25-.074c.057-.04.095-.117.037-.135-.057-.02-.192-.115-.23-.115-.036 0-.19.06-.267.076 0 0-.267.078-.42.057-.153-.017-2.696-.8-2.753-.82-.037-.02.115-.132.115-.132l-.037-.098-.248.135-.135-.096.268-.153-.04-.098-.4.21-.19-.057.458-.23-.077-.055-.65.248-.172-.04.708-.325-.134-.056-.994.366-.23-.022s.154-.094.23-.133c.076-.037.65-.23.764-.343.115-.096.154-.27.154-.27l.248.078s.403-.21.477-.27c.098-.054.27-.152.27-.152v-.324l.478.057s.15-.113.19-.132c.057-.02.152-.02.152-.02l.02-.304h.17l-.036.343.058.057s.02-.115.04-.152c.018-.04.094-.248.094-.248l.134.037s-.04.173-.06.23c-.017.058-.017.19-.017.19l.056.04s.076-.192.095-.248c.02-.057.06-.135.06-.135l.133.06s-.058.247-.058.303v.116l.058.037.152-.286.096.096-.095.266.04.038s.056-.076.075-.115c.02-.018.077-.077.077-.077l.095.077s-.095.154-.115.21c-.037.06-.21.383-.248.46-.058.076-.135.228-.135.228l-.115-.075s.077-.152.097-.23c.018-.075.037-.13.037-.13s-.134-.097-.153-.117c-.018-.02-.075-.037-.075-.037s-.058.306-.058.363v.056h-.133s.02-.288.02-.382c0-.097-.02-.19-.04-.21 0-.02-.115-.077-.115-.077l-.134.097s.037.172.058.228c.018.057.037.192.018.25-.018.057-.037.153-.037.153l-.078.02s.02-.268-.017-.344c-.02-.08-.04-.135-.058-.153-.02-.038-.02-.077-.02-.077l-.192.096s.04.112.04.17c0 .077 0 .153-.02.192-.02.037-.038.152-.038.152h-.115s-.02-.248-.02-.285c0-.06.02-.175.02-.175l-.173.096s.058.116.04.173c0 .06-.02.172-.154.248-.133.097-.21.118-.21.118s.058.114.095.13c.038.04.153.1.153.1s.44-.308.69-.25c.248.057.4.17.515.305.115.135.306.192.363.21.057.02.726.27.86.288.134 0 .362.058.478 0 .115-.057.287-.133.363-.133.076 0 .228.037.344.174.135.133.364.57.288.67zm6.92 2.198c-.42.035-2.79.418-5.372.113-2.294-.267-4.61-.917-6.078-1.433-1.472-.517-2.066-.326-2.754.077-.726.42-1.11 1.203-1.11 1.203s0-.248.04-.325c.02-.076.096-.228.153-.363.058-.136.325-.44.402-.612.095-.19.4-.957.438-1.13.01-.034.024-.083.044-.136-.034 0-.063.004-.063.004l.018-.115.106-.022c.064-.13.152-.264.258-.34.19-.133 1.548-.018 1.873.04.326.055 2.923.86 4.3 1.202 1.377.346 2.944.44 3.02.422.078-.02.172.095.115.172-.056.076-.152.056-.152.056v.06s.267.095.324.112c.06.02.23.574.27.707.056.134-.155.114-.155.114v.078l.842-.02-.02-.058s-.192-.02-.21-.095c-.02-.058-.06-.286-.06-.286s.193.152.326.228c.153.096.363.037.363.037l-.134.114-.172.116.9-.018-.23-.117-.116-.36.173-.232.21.018.135.214.17-.02-.248-.535-.38-.04s-.06-.133 0-.133c.056 0 .228 0 .323.02.096.017.23.074.268.113.057.04.363.363.363.363l-.23.268.442.364.344-.363-.287-.267.094-.113-.21-.346s.593.06.65.06c.058 0 .04-.212.04-.212s.074.037.132.037c.057 0 .095-.058.095-.058l.154.057s.115-.038.115-.077c.02-.037-.116-.325-.116-.325l.612.172-1.24.766.667.21 1.586-.86.23-.823s-.69.364-.786.403c-.115.017-.267-.155-.267-.155s.363-.4.44-.532c.095-.115.153-.365.153-.365s-.498.19-.574.21c-.076.02-.383.114-.383.114s.02-.207.02-.266c.02-.057.096-.477.096-.477s-.134.057-.326.115c-.19.057-.746.305-.746.305l-.018-.533s.23-.078.362-.098c.135-.018.44-.018.65-.018.23 0 .612.116.612.116s.02-.06-.058-.192c-.095-.134-.306-.154-.42-.193-.116-.057-.44-.096-.44-.096s.25-.19.363-.23c.114-.036.42-.152.554-.17.132-.02.363-.154.173-.212-.193-.057-.364-.02-.574-.02-.19 0-.554.078-.554.078s.362-.173.534-.267c.172-.097.517-.173.63-.232.116-.056.288-.076.116-.154-.172-.055-.535-.094-.727-.076-.19.02-.498.076-.498.076s.06-.344.078-.42c.02-.076.19-.535.19-.535l-.23-.095-.514.496-.097-.42-.21.154-.19.572s-.174-.113-.23-.152c-.06-.037-.116-.23-.116-.23l-.152.058s.113.324.113.402c.02.094 0 .268 0 .268l-.17-.02-.06-.037c-.055-.04-.094-.058-.132-.117-.04-.055-.134-.037-.21-.037-.077 0-.135-.036-.135-.036s.116-.21.212-.326c.095-.116.248-.364.248-.364l-.21-.076s-.19.096-.267.152c-.076.06-.535.403-.574.48-.058.077-.134.114-.134.056 0-.057-.02-.496-.02-.63s-.153-.25-.153-.25-.096.173-.114.268c-.02.116-.06.612-.06.67 0 .057-.037.153-.076.115-.038-.04-.133-.096-.267-.23-.133-.136-.306-.288-.306-.288l-.248.096s.02.076.096.21c.058.135.076.48.076.612 0 .133-.037.44-.037.44 0 .038-.096.095-.154 0-.057-.096-.153-.307-.172-.344-.036-.057-.094-.172-.113-.192-.02-.037 0-.096-.076-.152-.057-.057-.114-.04-.114-.04l-.02-.036c-.02-.04-.402-.287-.668-.27-.154.02-.574.154-.67.193-.095.037-.382.152-.42.132-.038-.02-.17-.095-.23-.095-.057-.02-.344.095-.42.115-.076.037-.095-.02-.076-.057l.152-.306s-.04-.04-.095-.04c-.038-.02-.038-.075-.038-.075s.02 0 .285-.9c.27-.9-.21-2.102-.248-2.178-.173-.385-.67-1.033-.67-1.033s.018-.057.04-.096c.037-.037.074-.152.132-.172.057-.017.46-.287.63-.343.173-.06.517.056.708.095.172.018.21-.115.21-.287 0-.17.04-.227.115-.266.058-.04.422-.153.422-.153v-.057s-.46.095-.594.152c-.133.06-.172.23-.172.307 0 .076-.02.134-.21.076-.19-.057-.363-.096-.42-.096-.057 0-.555.25-.61.287-.06.038-.097 0-.116-.134-.02-.134-.095-.324-.192-.42-.094-.095-.152-.306-.152-.402V2.48l-.192-.134-.21.306c-.057.057-.25.248-.305.324-.06.077-.06.403-.06.403s-.132-.116-.17-.195c-.038-.074.058-.265.058-.38 0-.114-.038-.305-.038-.42 0-.096-.04-.23-.04-.23l-.228-.077s-.017.06-.056.152c-.06.077-.155.23-.21.307-.058.076-.115.19-.115.19s-.268-.21-.363-.266c-.097-.058-.192-.058-.192-.058s-.076-.172-.17-.228c-.078-.057-.288-.096-.288-.096s-.192-.172-.25-.268c-.057-.095-.267-.037-.267-.037-.05-.09-.073-.13-.09-.158.027.07.11.235.11.235s.152-.077.25-.02c.055.037.17.344.17.344s.25-.02.305.02c.078.058.23.286.268.306.04 0 .21.037.267.076.058.057.23.23.25.248.018.02.036.057.036.057s.077.02.153.057c.096.04.135.174.135.174s.21.02.248.075c.037.06.056.307-.077.213-.133-.076-.038-.213-.133-.193-.097 0 0 .117-.097.098-.075 0-.23-.06-.23-.06s.04-.17-.037-.227c-.078-.08-.134-.155-.134-.096v.248c0 .037-.135.037-.193-.057-.076-.094-.228-.42-.287-.497-.057-.076-.113-.113-.113-.096-.02.02.037.192.037.25 0 .057-.115.094-.152.038-.04-.057-.154-.364-.192-.42-.04-.06-.076-.06-.076-.04 0 .02.02.172.02.172s-.193-.017-.23-.115c-.038-.076-.077-.19-.095-.285 0-.096-.08-.172-.098-.154-.018.02.02.096.02.115 0 .02-.097.076-.173.02-.077-.057-.134-.21-.173-.307-.04-.075-.076-.095-.076-.095v.078c.02.037-.075.094-.17-.058-.096-.133-.06-.21-.06-.21s-.075.055-.095.077c-.017 0-.075 0-.133-.115-.056-.116-.095-.21-.115-.21 0 0-.02.057-.038.075 0 .02-.076.06-.115-.018-.038-.078-.06-.25-.038-.267 0-.04 0-.135.057-.04.057.096.153.173.153.173s.095-.057.153 0c.058.056.153.228.153.228s.133-.076.21-.017c.058.057.116.17.116.17s.14-.013.195.028c-.008-.008-.016-.016-.025-.028-.057-.056-.192-.037-.192-.037s-.04-.056-.076-.132c-.076-.115-.248-.058-.248-.058s-.06-.096-.116-.172c-.057-.057-.152-.057-.21-.057 0 0-.057-.152-.116-.17-.056-.04-.133-.058-.152.055-.018.135.02.268.06.363.036.097.208.136.266.136.057 0 .057.057.095.172.058.115.19.152.27.152.054 0 .054.077.113.21.058.134.173.078.287.134.115.06.02.135.115.248.096.115.172.098.268.098.076 0 .056.133.152.228.076.096.172.116.21.116.058 0 .114.093.192.19.057.097.268.134.268.134l-.076.076s-.25.02-.366-.02c-.114-.04-.19 0-.19 0s.058.098.096.174c.056.057.21.286.21.286l-.154-.02c-.152-.018-.4-.172-.4-.172s-.135.02-.097.115c.037.096.21.344.248.403.04.056-.076.113-.228.095-.155-.02-.27-.095-.364-.134-.095-.038-.25 0-.326 0-.076 0-.248.25-.324.288-.076.04-.19.115-.307.152-.114.04-.21-.02-.44.094-.23.117.06.52.02.594-.04.076-.192.193-.096.27.096.075.287.42.287.42s-.057.19-.344.306c-.305.113-.305.38-.343.533-.04.172.057.613.057.613l.23-.058s.056-.172.075-.268c.02-.096.076-.19.498-.152.42.037.458-.135.535-.307.057-.172.172-.555.268-.61.076-.058.19-.077.305-.04.115.058.326.04.442-.096.113-.134.21-.173.304-.134.096.04.268.23.268.23s0 .153.058.288c.057.132.305.19.305.19l.02.323-.192.04s-.152.095-.172.17c-.037.077-.343.27-.343.27s-.096-.173-.135-.306c-.037-.114-.21-.345-.21-.345l-.362.02s-.04.402-.02.537c.02.133-.057.725-.057.725l.192.23s-.46.057-1.15-.096c-.342-.075-1.317-.516-1.317-.516s-.095-.342-.132-.42c-.038-.076-.19-.535-.19-.535l.4-.402c.076-.078.364-.42.364-.42h-.402c-.058 0-.267-.02-.267-.02s.17-.247.248-.382c.077-.133.346-.67.346-.67s-.345.076-.422.135c-.058.058-.343.173-.343.173s.057-.383.057-.46c.02-.075.077-.42.077-.42s-.344.4-.42.497c-.058.094-.155.172-.172.094-.02-.055-.096-.934-.096-.934l-.707.916-.536-.4s.056-.154.02-.21c-.057-.058-.116-.134-.116-.134l.307-.21s.19.075.286-.057c.078-.133-.094-.192-.094-.192l.076-.078s.268.137.344-.113c.057-.155-.172-.248-.172-.248l.057-.078s.307.058.307-.305c0-.208-.306-.095-.306-.095l-.058-.096s.23-.192.02-.383c-.154-.133-.4.058-.4.058l-.04-.058c.02-.037.077-.21-.115-.287-.21-.077-.307.173-.307.173 0-.04.02-.25-.19-.25-.23.02-.23.25-.23.25h-.057s.02-.154-.19-.173c-.192-.018-.192.095-.192.095l-.057-.056-.153-.232s-.095.078-.172.135c-.056.057-.382.344-.382.344V.912l-.23.04.06-.23-1.532-.058.04.287-.23-.056-.02.88-.42-.327-.247.383-.097-.057s-.02-.23-.305-.213c-.172.022-.172.25-.172.25h-.076s0-.306-.268-.267c-.288.04-.135.287-.135.287h-.057s-.134-.172-.307-.076c-.19.076-.055.305-.055.305l-.06.018s-.074-.19-.304 0c-.21.174.058.324.058.324l-.057.04s-.247-.04-.247.17c0 .308.305.27.305.27l.02.077s-.268.016-.192.225c.058.213.383.137.383.137s-.06.133-.02.23c.056.094.287.075.287.075l.228.267s-.037.057-.076.155c-.058.092 0 .15 0 .15s-.25.134-.192.27c.058.13-.077.112-.23.016-.152-.095-.343-.4-.42-.476-.058-.078-.23-.268-.23-.268s-.037.057-.037.152c0 .077-.018.84-.018.84s-.42-.265-.498-.343c-.076-.076-.23-.113-.23-.113s.058.305.135.42l.23.555s-.27-.135-.327-.154c-.057-.02-.497-.116-.497-.116s.057.23.173.346c.114.115.438.592.438.592l-.518.076.576.63s-.058.288-.077.327c-.04.057-.135.4-.173.477-.038.078-.516.306-.65.326-.134.02-.134-.057-.173-.172-.057-.115-.133-.344-.228-.44-.096-.095-.4-.25-.457-.326-.06-.076-.06-.304-.08-.363-.038-.057-.132-.21-.228-.344-.096-.132.018-.247.152-.17.133.056.155.208.287.42.134.19.384.247.384.247s-.058-.113-.135-.248c-.057-.134.038-.325-.02-.42-.057-.077-.305-.307-.305-.307l.133-.285s-.19-.077-.306-.116c-.114-.037-.23-.134-.325-.21-.094-.077-.172-.133-.076-.133.097 0 .173.055.364.036.19-.018.344-.076.344-.076s-.096-.057-.21-.116c-.116-.056-.268-.285-.268-.285s.095-.06.134-.153l.096-.192s-.096-.04-.19-.056c-.097-.04-.308-.08-.42-.156-.097-.058-.02-.095-.02-.095s.114 0 .286-.038c.172-.04.19-.403.19-.403l-.094-.057s-.172.076-.307.132c-.152.057-.306.02-.306.02s-.134-.096-.134-.172c0-.058.115-.152.115-.267 0-.116-.095-.192-.095-.192s-.153.113-.267.172c-.116.057-.192.037-.307.037-.114 0-.095-.037-.476-.057-.384-.017-.192.02-.288.077-.075.058-.19.115-.19.115s-.057-.076-.057-.172c.017-.076.055-.172.055-.287 0-.097-.306-.325-.306-.325s.058-.155.038-.287c-.04-.135-.326-.077-.326-.077l-.133-.057s.17-.23.057-.363c-.134-.133-.345.02-.345.02s-.02-.27-.172-.288c-.17-.018-.19.21-.19.21l-.173.058s-.057-.114-.248-.057c-.174.057 0 .324 0 .324l-.116.096s-.133-.037-.21.096c-.077.133.058.286.058.286l-.135-.02s-.057-.172-.057-.267c-.02-.078-.056-.193-.056-.193l-.06.06c-.056.055-.208.227-.208.227l-.174-.037.23-.498-1.03.517.437.17-.075.21s-.346-.076-.384-.017c-.037.057.173.266.173.266h-.19s-.02-.17-.212-.094c-.19.056-.094.172-.094.172l-.133.056s-.04-.056-.096-.056c-.058 0-.078-.096-.268.132-.192.23.17.268.17.268l-.018.172s-.268.154-.172.268c.076.115.248.04.248.04l.135.075s-.06.17.076.19c.133.037.15-.076.15-.076l.097.057s-.057.135.057.153c.095.02.172 0 .172 0s-.172.326-.305.537c-.114.19-.286.668-.323.744-.06.076 0 .155.074.248.077.098.192.192.27.23.076.038-.04.077-.057.192-.02.094.038.152.038.152s-.095.21-.075.344c.017.135.286.364.4.422.115.057.21.094.307.17.076.06.172.307.267.268.075-.037 0-.438 0-.438s.228-.154.267-.193c.037-.058.094-.02.057.094-.04.116-.057.307-.04.403.04.096.21.248.307.248s-.17.172-.227.21c-.06.04-.403.04-.516.134-.154.133-.307.305-.518.342-.21.04-.23.04-.23.04s.02.056.134.115c.115.058.326.058.535-.06.21-.095.305-.188.458-.188.172 0 .287.092.21.13-.056.04-.286.117-.325.134-.057.02-.19.117-.23.117-.056 0-.4.134-.495.173-.096.055-.268.13-.23.19.04.058.554.287.554.287s-.056.133-.19.19c-.116.058-.44.058-.42.116.018.057.095.192.095.192s-.116.017-.25-.02c-.133-.037-.19-.27-.19-.27s.285-.247.134-1.087c-.172-.897-.592-1.108-.975-1.24-.515-.173-1.757.094-1.93.112-.173.02.094-.42-.268-.668-.153-.096-.477 0-.477 0s-.154-.115-.21-.172c-.058-.056-.154-.248-.517-.19-.096.016-.44.17-.553.21-.096.056-.652 0-.765-.06-.116-.056-.23.02-.23.02s.075.305.153.383c.057.057.305.286.382.307.058.018.46-.058.61-.04.155.02.192.306.192.364 0 .057-.096.248-.113.362-.022.117.17.402.247.478.076.076.037.135-.172.154-.19.018-.172.25-.172.25s-.096-.08-.21-.136c-.116-.057-.212.056-.212.056l.02-.152c.02-.152-.152-.344-.208-.4-.06-.06-.307-.21-.326-.344-.038-.135-.057-.19-.133-.154-.06.058-.06.23-.06.23l-.055.115-.077-.04.038.212-.075-.02.038.212h-.075s.02.092.057.188c.038.096.056.172.115.307.057.113.057.267.096.324.037.057.018.17-.096.19-.115.02-.076-.113-.096-.248-.018-.133-.152-.267-.152-.306 0-.057-.134-.096-.17-.096-.06 0-.155-.113-.155-.113s-.038.113-.076.058c-.057-.058-.172-.117-.172-.117s-.037.117-.115.02c-.077-.096-.172-.077-.172-.077l.02.134s-.057 0-.153-.056c-.076-.057-.363-.23-.363-.23s.02.153-.06.077c-.073-.056-.267-.115-.267-.115s.02.172.096.307c.077.152 0 .134.077.248.078.113.193.152.193.152l-.02.06.134.15s-.058.077.02.153c.076.06.152.116.152.116s-.037.17.095.21c.134.038.173 0 .173 0s-.056.116.058.116c.096 0 .25-.06.25-.06v.097s.057-.02.152-.038c.096-.02.23-.078.306-.135.077-.06.153-.04.23-.04.076 0 .02.155 0 .194-.02.058-.115.058-.115.058h-.17c-.06 0-.155.057-.25.057-.096.017-.115.04-.192.056-.075.02-.19.04-.228.06-.058.02-.095.02-.19 0-.097-.02-.077.056-.077.056s-.153-.02-.192-.037c-.056-.02 0 .093.06.113.056.02.112.152.112.152s.057.135.116.152c.057.02.172.06.23.06.058 0 0 .095 0 .095s.153.017.21.037c.057.018-.134.133-.038.133.095 0 .248.057.248.057l.058.098c.057.093.115.152.287.113.172-.038.4-.075.4-.075l-.076.115c-.077.113-.116.363-.058.363.057 0 .305.037.305.037s.115 0 .115.057c0 .098-.115.098-.266.098-.154 0-.288-.06-.288-.06l-.076.077s-.114-.076-.19-.056c-.058.04-.058.172-.097.172-.056 0-.153-.02-.19.04-.058.055-.096.17-.096.17s0 .057.037.094c.038.06.058.096.058.096s-.076 0-.076.06c0 .055.304.112.304.112v.135c0 .076.19.04.19.04s.02.055.096.055c.057 0 .123-.052.155-.08-.04-.02-.04-.092-.04-.092s-.134.057-.267.077c-.115 0-.096-.096-.096-.155 0 0 .42-.228.555-.265.113-.057.592-.383.648-.42.057-.02.155.037.135.074-.037.038-.153.134-.153.134s.038.172 0 .267c-.038.097-.114 0-.114 0s0 .078-.06.154c-.054.076-.132 0-.132 0s-.16.234-.24.248c.02.035.073.115.163.04.098-.097.098-.173.174-.173.076-.02.344.058.42.058.057 0 .115.093.19.19.06.095.212.058.212.058v.17c0 .115.21.21.286.21.057 0 .344-.076.44-.113.01-.004.02-.006.03-.006.017-.154.167-.23.198-.357.04-.152.057-.307.057-.307l.098-.02s0 .192.133.307c.134.096.078.344-.055.46-.125.087-.33.222-.405.058-.1.02-.57.19-.57.19l.17.515.69-.324-.096-.288s.27-.037.383-.096c.114-.057.19-.438.19-.438s2.16.133 2.963.038c.804-.096 1.874-.46 2.237-.555.362-.095 3.192-1.05 3.364-1.07.172-.02.403.172.02.305-.383.115-.955.307-.955.307l-.078.535s.402-.44.498-.535c.096-.076.076 0 .076.076s-.114.555-.19.707c-.057.154-.21.135-.21.135v.096s.305-.077.477-.155l.536-.17v-.077s-.266.076-.25.02c.02-.057.117-.594.136-.668.017-.078.075-.135.15-.155.058-.02.154.116.154.192v.21l.248-.058v-.056l.115-.02.06.115s.015.012.038.026c.01-.036.04-.165.056-.294.02-.153-.018-.135-.038-.116-.02.04-.095.155-.152.172l-.06.02s.078-.115.078-.21c0-.097-.077-.21-.077-.15 0 .053-.075.073-.13.112l-.06.037s.076-.15.076-.228c0-.076 0-.134-.056-.115-.057.02-.133-.056-.116-.115.02-.074-.152-.018-.094-.152.057-.133.153-.192.153-.192s-.383 0-.498.06c-.134.055-.383.19-.535.21-.153.037-.116-.098-.02-.155.096-.056.383-.267.383-.267s-.115-.04-.172-.04c-.058 0-.42.173-.573.27-.152.114-.457.325-.63.42-.17.096-.248.096-.363.115-.097.02.095-.172.192-.25.096-.075.4-.34.477-.418.095-.077-.096-.02-.153.037-.058.057-.746.573-.84.63-.096.058-.27.19-.402.23-.135.037-.307 0-.307-.057.02-.058.135-.172.212-.27.077-.093.592-.493.612-.515.02-.02-.02-.056-.096-.04-.058.02-.535.403-.63.423-.097.04-.23-.02-.307-.075-.095-.057-.095-.174.02-.248.115-.098.613-.46.707-.535.115-.077.21-.27.248-.248.04.017.096.113.117.285.037.173.037.305.037.305h.19s.057-.19.116-.267c.056-.076.115-.268.17-.268.06 0 .27-.21.27-.344 0-.134.093-.326.132-.267.192 0 .192.362.307.42.114.038 1.566.266 1.834.323.267.06.955.344 1.03.535.078.172.25.516.21.653-.037.133-.075.114-.15.21-.077.095-.097-.06-.06-.116.06-.056.116-.093.116-.172.02-.076-.057-.152-.096-.095-.037.076-.114.095-.133.095-.04 0 .038-.115.076-.17.038-.06.057-.232 0-.173-.057.055-.094.075-.133.094-.058.018.018-.134 0-.172-.02-.04-.134-.02-.154-.058-.038-.037-.172-.115-.248-.152-.076-.038-.172.056-.115.078.058.037.25.228.306.322.056.096.17.383.115.478-.04.083-.082.163-.116.21h.036s.096.134.23.097c.134-.04.095-.057.153-.078.055-.02.075-.038.17-.058.077-.017.114.192.114.192s.096.02.173.02c.058 0 .058-.116.116-.116.056 0 .17.154.248.21.076.058.19.173.306.306.115.115.803.918.803.918l.095.422s-.458-.518-1.148-1.014c-.668-.518-2.045-.076-2.464.037-.422.115-4.38 1.51-5.832 1.625-1.45.096-4.07-.096-4.394-.115-.325-.02-1.74-.114-2.064-.153-.326-.04-.937-.172-.937-.172l.248.63s3.937.42 5.676.365c1.74-.078 2.14.115 5.64-1.034 3.23-1.07 3.21-.898 3.783-.724.363.112.785.57.974.723.172.153-.037.48-.266.25-.266-.27-.88-.822-1.68-.65-.822.172-1.434.516-1.434.516l.19.305s1.13-.537 1.566-.422c.46.116.96.307 1.13.65.17.345.516.536.84.288.325-.25.362-.67.383-.804.02-.133-.077-.648-.077-.648s.23.324.287.383c.056.057.248.23.248.23l-.075.075s-.134.04-.173.135c-.038.096.134.44.134.63v.325l.152.268s.324.02.496.04c.174.018.478.17.747.036.266-.134.21-.286.21-.286l.172-.268s.783.268 1.05.305c.268.04 1.05.116 1.244.097.19-.02.287-.172.325-.305.04-.135-.038-.25-.038-.25l.65-.4s.305.076.383.037c.075-.04.267-.27.324-.365.04-.076-.038-.38-.038-.38l.23-.174s-.02.462-.02.67c0 .23.076.383.19.477.116.098.67.326.9.115.228-.21.88-.918 1.586-.726.707.174 1.166.422 1.166.422l.248-.422s-1.107-.57-1.605-.516c-.496.076-1.222.344-1.47.707-.115.154-.593.02-.306-.228.267-.232 1.204-.994 1.892-.863.802.155 3.842 1.186 4.185 1.282 1.322.364 3.786.63 4.648.708 1.948.17 5.12-.364 5.12-.364l.595-.746s-1.15.23-1.625.27z"/><path d="M64.028 12.248c-.096-.02-.152-.115-.172-.25-.038-.133-.057-.324-.057-.4 0-.077.018-.153.095-.133.113.017.192.152.21.228.02.076.038.364.058.457.018.098-.04.118-.135.098m.4-.498c-.093-.19-.44-.363-.515-.383-.535-.113-.572.172-.572.287 0 .115.23.67.688.707.46.02.48-.15.498-.227.02-.076 0-.192-.097-.383m-4.435.152c-.057-.037-.496-.4-.535-.437-.04-.04 0-.155 0-.155l-.04-.02-.456.538.152.17.02-.018s-.02-.135 0-.172c0-.04.228-.19.228-.19l.192.19s-.038.076-.096.133c-.04.058-.152-.018-.152-.018l-.04.04.23.188.02-.037s-.04-.057 0-.096c.02-.037.133-.115.133-.115l.25.174-.038.056c-.04.057-.19.172-.25.21-.056.04-.113-.018-.113-.018l-.04.037.19.155.536-.574-.04-.018s-.092.04-.15-.02M57.26 4.89c-.095.036 0 .15 0 .15s-.23.117-.248-.13c-.02-.25.02-.384.02-.48.018-.096.114-.172.21-.133.115 0 .17.153.17.305s-.056.344-.056.344-.038-.077-.096-.057m.153.17s.058-.095.096-.17c.04-.08.04-.155.04-.403.018-.248-.21-.364-.326-.364-.114 0-.286.08-.307.21 0 .077-.056.42-.037.556.02.134.19.267.248.247.076 0 .172-.02.172-.02l.02.04c.02.04.153.152.248.152.076 0 .19-.038.19-.038s-.095-.02-.17-.06c-.077-.038-.173-.15-.173-.15m1.242-.384l.038-.057s-.076-.018-.134-.057c-.056-.06-.19-.094-.19-.094l-.02.034s.06.06.078.06c.02 0 .038.057.02.096 0 .038-.192.38-.192.418 0 .02-.057.08-.154.118-.076.037-.248-.08-.248-.155s.155-.495.172-.553c.02-.057.057-.038.057-.038l.04-.077-.27-.095-.018.056s.095.04.076.076c-.02.04-.075.307-.132.516-.058.21.076.307.172.365.096.058.287.02.324-.038.037-.056.25-.517.268-.574.02-.037.115 0 .115 0m-2.79.496c-.02-.037-.25-.592-.287-.648-.02-.057.038-.096.038-.096l-.02-.057-.21.096v.075s.077 0 .095.018c.02.02.25.61.27.632.017.038-.04.096-.04.096l.02.058.23-.115v-.038s-.077.018-.096-.02m-.555.268c-.075.037-.248.037-.4-.172-.172-.21-.06-.4.02-.46.093-.076.227 0 .36.23.134.212.096.344.02.403m-.46-.766c-.112.077-.304.383-.093.63.208.25.44.345.61.23.172-.094.248-.44.038-.727-.21-.248-.46-.21-.555-.133m1.797-.304l-.038-.23s-.325.037-.44.076c-.133.057-.46.133-.46.133l.097.25.057-.02s0-.153.038-.173c.037-.02.19-.057.19-.037.02.018.117.535.135.592.02.058.02.095-.018.113l-.08.04.022.056s.133-.018.17-.037c.06-.02.173-.02.173-.02V5.06s-.077 0-.095-.056c-.02-.06-.115-.594-.115-.63 0-.04.038-.06.096-.077.057 0 .133-.04.172-.02.018.02.057.114.057.114l.038-.017zm2.027 1.088c-.02 0 .02-.056.02-.093 0-.04.247-.498.247-.535.02-.04.057-.04.095-.04.037 0 .057.02.057.02l.02-.058-.326-.133-.017.04s.037.037.056.037c.02.02 0 .057 0 .096 0 .04-.25.516-.268.574-.02.057-.038.037-.076.037s-.077-.037-.077-.037l-.04.037s.135.057.173.096c.038.037.134.076.134.076l.037-.056s-.018-.06-.037-.06m1.452 5.735c-.098.06-.23.115-.287.135-.06 0-.23-.057-.135-.153.096-.095.192-.154.268-.115.078.04.134.057.134.057l.038-.058-.344-.23-.038.04.038.075s-.172.076-.192.135c-.018.058-.094.21.057.304.173.096.325.04.42-.02.097-.036.25-.093.288-.017.057.075 0 .17-.06.228-.055.058-.13.076-.17.076-.038 0-.133-.018-.133-.018l-.058.038.306.228.04-.037-.06-.096s.287-.173.287-.25c0-.055-.02-.23-.095-.286-.095-.057-.21-.094-.306-.04m-.06-3.42l.27-.058.018-.056s-.23 0-.248-.037c-.02-.04-.02-.096-.04-.135 0-.04 0-.076.04-.076.037 0 .572-.21.63-.23.06-.02.06.02.06.02h.074l-.096-.288-.057.02s.038.114-.018.134c-.057.018-.516.172-.61.21-.097.038-.135-.097-.135-.097l-.058.04s.075.21.095.287c.02.057.076.268.076.268m.785 3.077s-.018.06-.074.06h-.096l-.536-.25.88-.29.096-.17-.04-.018s-.02.094-.076.094c-.056 0-.69-.153-.745-.17-.038 0-.056-.096-.056-.096l-.06-.04-.056.077-.076.173.057.018c.002 0 .04-.095.078-.056.058.04.517.152.517.152l-.765.268-.038.018s.745.345.783.382c.04.04.058.155.058.155l.038.018.154-.326h-.04zm-1.32-4.57l.52-.478c.016 0 .074.06.074.06l.037-.04-.135-.21-.764.19.21-.707-.23-.228-.036.056s.057.056.057.097c.018.018 0 .074-.02.114-.02.037-.268.46-.307.496-.038.04-.057.04-.094.02-.04-.02-.06-.02-.06-.02l-.018.04.19.19.04-.04s0-.036.018-.095c.02-.056.287-.515.287-.554.02-.037.057-.037.057-.037l-.267.898.84-.23s-.42.343-.458.363c-.04.04-.077.04-.096.02-.02-.02-.038-.057-.038-.057l-.04.038.154.25.058-.06s-.02-.055.018-.075m.86.153l-.325.307-.093-.21.42-.097zm-.458.557c.02-.04.65-.65.65-.65l-.02-.04s-.82.133-.86.153c-.04 0-.114-.038-.114-.038l-.077.077.15.21.04-.02c.002 0-.017-.058-.038-.095-.02-.04-.002-.04.038-.058.058-.018.077-.018.096-.018.02 0 .038.037.038.037s.077.173.077.193l-.002.076s-.038.057-.075.057c-.04.018-.06-.095-.06-.095l-.035.017.134.325.056-.04s-.02-.055 0-.092zm-1.033 3.036c.02-.077.154-.134.19-.25.04-.112.02-.247.097-.362.057-.116.135-.23.135-.287 0-.076-.04-.017-.078.06-.038.075-.115.152-.154.247-.037.076-.057.248-.076.305-.02.058-.095.098-.095.098s.04-.29.04-.344c0-.06.017-.117.112-.194.078-.076.135-.113.097-.152-.04-.057-.04-.096-.04-.096l-.094-.095-.058.094H58.6c-.02.077.037.116.095.155.058.036-.02.075-.095.016-.057-.037-.077-.056-.172-.056-.096.02-.115.056-.057.076.058.02.115 0 .135.056.018.06-.173.04-.23.04-.057 0-.116.02-.076.056.057.06.018.04.113.04h.172s.152.02.152.075v.575c0 .095.097.19.097.19s-.02-.114.057-.153c.078-.057.115-.018.115-.096M57.3 9.86c0 .036-.057.056-.096.056-.037 0 0 .076.04.152.036.096 0 .172 0 .21 0 .04.17-.056.19-.077.018-.017.057-.17.04-.228-.022-.056.037-.248.056-.287.038-.056.133-.056.153-.113v-.25c0-.037.114-.096.057-.133-.057-.04-.133.056-.133.095v.228c0 .06-.116.098-.155.098-.037 0 .02-.077.04-.114.02-.04.038-.06.038-.117 0-.058.02-.134.02-.19 0-.06-.077-.04-.135-.04-.057 0-.135 0-.21.04-.077.036-.038.343-.02.44.02.094.115.19.115.23m-3.325.82s-.84.287-.976.344c-.135.058-.287.117-.287.117s.095.056.152.056c.058 0 1.148-.364 1.148-.364l-.038-.152zm.094.324s-.458.154-.574.21c-.172.077-.535.25-.535.25.04.038.096.058.173.038.057-.02.994-.4.994-.4l-.058-.098zm-19.994 3.02h-9.29v-.153l1.338-.743V4.01l-1.338-.766V3.09h8.984l.192 2.85-.174.056S32.354 4.504 32.01 4.2c-.324-.306-.572-.382-.783-.458-.44-.115-.918-.115-.918-.115l-1.645-.057v4.625s1.723-.02 1.912-.057c.268-.04.364-.04.728-.46.286-.344.764-.956.764-.956h.19v3.65h-.19s-.9-1.318-.977-1.355c-.077-.04-.21-.248-.687-.248-.48 0-1.74-.04-1.74-.04v4.72s.974.02 1.778-.056c.783-.076 1.223-.076 1.738-.515.517-.44 1.875-2.03 1.875-2.03l.21.097-.19 3.078zm83.15-3.077l-.21-.076s-1.358 1.587-1.874 2.026c-.516.442-.955.46-1.74.518-.783.076-1.778.056-1.778.056V8.748s1.262.04 1.74.04c.477 0 .63.21.688.25.077.036.975 1.356.975 1.356h.19V6.76h-.19s-.46.613-.764.957c-.364.42-.46.42-.726.46-.192.018-1.913.055-1.913.055V3.607l1.643.057s.48 0 .92.115c.21.075.457.15.783.458.326.307 1.777 1.797 1.777 1.797l.173-.057-.192-2.847h-8.983v.153l1.336.766v9.116l-1.335.746v.15h9.29l.19-3.115zM100.288 10.566l3.346-7.475h3.633v.154l-1.32.765v9.08l1.32.763v.154h-5.18v-.136l1.338-.763v-7.76l-3.92 8.524h-.477l-4.185-8.714v7.933l1.336.763v.154H92.68v-.136l1.357-.763V3.99l-1.358-.766V3.09h3.956M124.603 3.244l.21 2.697-.172.038s-1.87-2.027-2.082-2.2c-.097-.075-.995-.706-1.93-.055 0 0-.918.63-.326 1.777.593 1.166 2.333 1.97 2.792 2.236.44.268 2.675 1.358 2.39 3.574-.268 2.084-2.123 2.676-2.906 2.83-1.644.305-4.206-.382-4.206-.382l-.19-2.83.21-.018s1.873 2.234 2.6 2.504c.725.268 1.74.38 2.35-.402.612-.764.097-1.854-.498-2.274-.84-.574-2.063-1.224-2.923-1.797-.954-.63-1.567-1.567-1.7-2.618-.172-1.473.69-2.676 1.817-3.117 1.03-.42 1.872-.324 2.635-.268.764.04 1.93.307 1.93.307M8.533 20.107c-.348-1.7-1.354-2.32-2.358-2.32h-.04v4.628c0 4.078.027 4.252.24 4.48.176.174.43.254.898.268v.28H2.378v-.28c.468-.014.724-.094.898-.268.215-.228.242-.402.242-4.48v-4.627h-.04c-1.005 0-2.01.617-2.36 2.32h-.28v-2.79h7.977v2.79h-.283zm6.104 7.336v-.28c.428-.015.574-.11.695-.23.242-.24.27-.47.27-4.318h-2.802c0 3.85.026 4.078.268 4.318.12.12.267.215.697.23v.28H9.218v-.28c.43-.015.575-.11.695-.23.243-.24.27-.482.27-4.56 0-4.076-.027-4.305-.27-4.545-.12-.12-.266-.215-.695-.23v-.28h4.545v.28c-.43.015-.576.11-.697.23-.23.228-.268.443-.268 4.13h2.8c0-3.687-.038-3.902-.267-4.13-.12-.12-.266-.215-.694-.23v-.28h4.545v.28c-.43.015-.577.11-.696.23-.242.242-.268.47-.268 4.545 0 4.078.026 4.32.268 4.56.12.12.267.215.697.23v.28h-4.544zm12.443 0h-7.364v-.28c.43-.015.576-.11.697-.23.24-.24.268-.482.268-4.56 0-4.076-.027-4.305-.267-4.545-.12-.12-.268-.215-.697-.23v-.28h7.228l.04 2.79H26.7c-.295-1.368-.897-2.253-2.307-2.253h-1.1v4.104h.524c1.18 0 1.756-.298 1.917-1.423h.28v3.607h-.28c-.16-1.11-.738-1.53-1.918-1.53h-.524s.013 2.173.013 2.55c0 1.207.214 1.73 1.408 1.73 1.273 0 1.918-.846 2.24-2.32h.28l-.16 2.87zm6.34.133c-.993 0-1.864-.348-2.253-.348-.2 0-.376.067-.59.215h-.24v-2.87h.28c.2 1.556 1.114 2.468 2.628 2.468 1.262 0 1.664-.792 1.664-1.487 0-2.346-4.63-2.133-4.63-5.284 0-1.57.926-3.087 3.22-3.087.846 0 1.69.31 2.04.31.24 0 .373-.04.508-.175h.228v2.79h-.28c-.283-1.087-.954-2.387-2.51-2.387-1.018 0-1.475.577-1.475 1.208 0 2.08 4.924 1.943 4.924 5.484 0 1.824-1.462 3.164-3.514 3.164m12-8.46v4.304c0 2.455-.884 4.156-3.66 4.156-2.628 0-3.728-1.502-3.728-3.15V20.79c0-2.05-.093-2.788-.267-2.962-.12-.12-.27-.215-.698-.23v-.28h4.545v.28c-.43.015-.576.11-.696.23-.188.187-.268.898-.268 3.057v3.957c0 1.3.683 1.918 1.835 1.918 1.422 0 2.174-1.075 2.174-3.274v-4.37c0-1.073-.107-1.382-1.06-1.517v-.282h2.883v.28c-.952.136-1.06.445-1.06 1.517m9.735 0v8.328h-1.408l-5.216-7.2v5.4c0 1.076.107 1.384 1.06 1.52v.28h-2.884v-.28c.953-.136 1.06-.444 1.06-1.52v-3.27c0-4.076-.027-4.305-.267-4.545-.122-.12-.27-.215-.7-.23v-.28h3.327l4.264 5.98v-4.183c0-1.072-.106-1.38-1.057-1.516v-.282h2.883v.28c-.954.136-1.06.445-1.06 1.517m5.765-1.26h-.588v7.43c0 1.005.173 1.61 1.326 1.61 1.328 0 1.758-1.703 1.758-4.547 0-2.494-.604-4.492-2.495-4.492m.563 9.588H56.75v-.28c.43-.015.577-.11.698-.23.242-.24.268-.482.268-4.56 0-4.077-.026-4.305-.268-4.545-.12-.122-.267-.216-.697-.23v-.28h4.507c3.15 0 4.88 1.864 4.88 5.067 0 2.858-1.018 5.057-4.654 5.057m8.086-7.19l-1.047 3.273h2.172l-1.126-3.273zm.776 7.19v-.282c.82-.082 1.235-.267 1.235-.738 0-.176-.133-.684-.67-2.238h-2.6c-.403 1.246-.59 1.97-.59 2.117 0 .537.333.846.937.846v.293H65.4v-.28c1.003-.204 1.192-.378 1.73-1.973l2.614-7.872H71.5l2.895 8.41c.338.965.538 1.368 1.248 1.434v.28h-5.297zm11.332-8.194l-1.743 3.674c0 3.555.04 3.78.268 4.01.12.12.308.214.872.228v.28H76.18v-.28c.58-.014.75-.107.872-.228.227-.23.268-.455.268-4.01l-1.823-3.514c-.873-1.69-.94-1.728-1.716-1.81v-.282h4.788v.282c-.606.027-.846.175-.846.537 0 .16.068.35.482 1.18l1.356 2.724 1.14-2.4c.362-.765.563-1.222.563-1.49 0-.28-.174-.523-.752-.55v-.282h2.763v.282c-.803.107-.924.255-1.595 1.65m11.33.858c-.348-1.7-1.353-2.32-2.36-2.32h-.04v4.627c0 4.078.028 4.252.242 4.48.175.174.43.254.9.268v.28h-4.896v-.28c.47-.014.723-.094.898-.268.216-.228.243-.402.243-4.48v-4.627h-.04c-1.007 0-2.012.617-2.362 2.32h-.28v-2.79h7.98v2.79h-.284zm.683 7.335v-.28c.43-.015.578-.11.7-.23.24-.24.267-.482.267-4.56 0-4.076-.028-4.305-.268-4.545-.122-.12-.27-.215-.7-.23v-.28h4.547v.28c-.43.015-.576.11-.697.23-.24.242-.268.47-.268 4.545 0 4.078.027 4.32.268 4.56.12.12.268.215.697.23v.28H93.69zm11.963 0v-.28c.43-.015.577-.11.697-.23.242-.24.27-.482.27-4.56V19.65l-2.658 7.807h-.832l-2.735-7.807v5.996c0 1.072.108 1.38 1.06 1.516v.28h-2.683v-.28c.846-.12.967-.444.967-1.518v-3.27c0-4.077-.028-4.306-.27-4.546-.12-.12-.267-.215-.698-.23v-.28h3.77l2.065 6.156 2.132-6.156h3.46v.28c-.43.015-.578.11-.7.23-.24.242-.267.47-.267 4.545 0 4.078.027 4.32.268 4.56.122.12.27.215.7.23v.28h-4.547zm12.444 0h-7.362v-.28c.43-.015.577-.11.698-.23.24-.24.267-.482.267-4.56 0-4.076-.027-4.305-.267-4.545-.12-.12-.27-.215-.698-.23v-.28h7.23l.038 2.79h-.282c-.295-1.368-.896-2.253-2.305-2.253h-1.1v4.104h.524c1.178 0 1.755-.298 1.916-1.423h.28v3.607h-.28c-.16-1.11-.738-1.53-1.917-1.53h-.525s.013 2.173.013 2.55c0 1.207.214 1.73 1.408 1.73 1.275 0 1.92-.846 2.24-2.32h.28l-.16 2.87zm3.834.133c-.99 0-1.862-.348-2.252-.348-.2 0-.376.067-.59.215h-.24l.16-2.87h.282c.108 1.528.953 2.468 2.467 2.468 1.26 0 1.663-.792 1.663-1.487 0-2.346-4.626-2.133-4.626-5.284 0-1.57.926-3.087 3.217-3.087.847 0 1.69.31 2.04.31.242 0 .377-.04.51-.175h.227v2.79h-.282c-.28-1.087-.95-2.387-2.508-2.387-1.017 0-1.474.577-1.474 1.208 0 2.08 4.922 1.943 4.922 5.484 0 1.824-1.46 3.164-3.514 3.164"/></g></svg>
